/* XPM */
static char *_f5a70191d7f4c1dc6105dfbe475a9e2rCz1PJXUEmrNcdSD[] = {
/* columns rows colors chars-per-pixel */
"64 64 8 1 ",
"  c None",
". c black",
"X c #100E10",
"o c #211D21",
"O c #7A2121",
"+ c #AF3333",
"@ c #8ACA37",
"# c #D7EEBC",
/* pixels */
"                                                                ",
"                                                                ",
"                                                                ",
"                                                                ",
"                                                                ",
"                                                                ",
"                                                                ",
"                                                                ",
"                                                                ",
"                                                                ",
"                                                                ",
"                                                                ",
"                                                                ",
"                                                                ",
"                                                                ",
"                                                                ",
"                                                                ",
"                                                                ",
"                                                                ",
"                                                                ",
"                                                                ",
"                                                                ",
"                                                                ",
"                                                                ",
"                                                                ",
"                                                                ",
"                                                                ",
"                                                                ",
"                                                                ",
"                                                                ",
"                                                                ",
"                                                                ",
"                                                                ",
"                                                                ",
"                                                                ",
"                                                                ",
"                                                                ",
"                                                                ",
"                                                                ",
"                                                         oo     ",
"                                                    ooooooooooo ",
"                                                oooooooooo@@.oo ",
"                                                ooooooooooo#.ooo",
"                                                 ooXXXoooooooooo",
"                                                  ooXoXXoooooo  ",
"                                                  oooXXoooX     ",
"                             XXXXXXXXXXXXXXXXXX  oooooXXXX      ",
"                            XXXooooooooooooooooo oooooXXX       ",
"                          XXXXooooooooooooooooooXoooooXXX       ",
"                    XXXXXXooooooooooooooooooooooXoooooXXX       ",
"                  XooooooooooooooooooooooooooooXoooooooX        ",
"               XXoooooooooooooooooooooooooooXXXooooooooX        ",
"            XXXooooooooooooooooooooooooXXXXXXoooooooooo         ",
"            XooooooooooooooooooooXXXXXXXoooXoooooooooo          ",
"       +     XXXXXXXXXXXXXXXXXXXXXXooXoooooXooooXXoooo          ",
"       +++O             ooooooooXooooXooooo XooXXXooo           ",
"       +++O+          oooooooooXooooXXooooo    XXXooo           ",
"         +++++        oooooooXXooXooXXXoooo      oooo           ",
"   ooo oXO+++O+     oooooooXXooooXooXoooooo      oooo           ",
"    ooooXoOO+O+   oooooooooooXooXoooXooooo       oooo           ",
"    oooXXooooO+O ooooooooooo     oooXoooo         oooo          ",
"    ooXoooXXooooooooooo            XXooo          ooooo         ",
"      ooooXXXoooooo                ooXoXX          ooooXX       ",
"       oXXXXX                       oooooo           ooooo      "
};
