/* XPM */
static char *_7aa2688384948ffabecb147d2881cd8JZgvqZGqq7a2xbAj[] = {
/* columns rows colors chars-per-pixel */
"64 64 8 1 ",
"  c None",
". c black",
"X c #100E10",
"o c #211D21",
"O c #7A2121",
"+ c #AF3333",
"@ c #8ACA37",
"# c #D7EEBC",
/* pixels */
"                                                                ",
"                                                                ",
"                                                                ",
"                                                                ",
"                                                                ",
"                                                                ",
"                                                                ",
"                                                                ",
"                                                                ",
"                                                                ",
"                                                                ",
"                                                                ",
"                                                                ",
"                                                                ",
"                                                                ",
"                                                                ",
"                                                                ",
"                                                                ",
"                                                                ",
"                                                                ",
"                                                                ",
"                                                                ",
"                                                                ",
"                                                                ",
"                                                                ",
"                                                                ",
"                                                                ",
"                                                                ",
"                                                                ",
"                                                                ",
"                                                                ",
"                                                                ",
"                                                                ",
"                                                                ",
"                                                                ",
"                                                                ",
"                                                                ",
"                                                                ",
"                                                                ",
"     oo                                                         ",
" ooooooooooo                                                    ",
" oo.@@oooooooooo                                                ",
"ooo.#ooooooooooo                                                ",
"ooooooooooXXXoo                                                 ",
"  ooooooXXoXoo                                                  ",
"     XoooXXooo                                                  ",
"      XXXXooooo  XXXXXXXXXXXXXXXXXX                             ",
"       XXXooooo oooooooooooooooooXXX                            ",
"       XXXoooooXooooooooooooooooooXXXX                          ",
"       XXXoooooXooooooooooooooooooooooXXXXXX                    ",
"        XoooooooXooooooooooooooooooooooooooooX                  ",
"        XooooooooXXXoooooooooooooooooooooooooooXX               ",
"         ooooooooooXXXXXXooooooooooooooooooooooooXXX            ",
"          ooooooooooXoooXXXXXXXooooooooooooooooooooX            ",
"          ooooXXooooXoooooXooXXXXXXXXXXXXXXXXXXXXXX     +       ",
"           oooXXXooX oooooXooooXoooooooo             O+++       ",
"           oooXXX    oooooXXooooXooooooooo          +O+++       ",
"           oooo      ooooXXXooXooXXooooooo        +++++         ",
"           oooo      ooooooXooXooooXXooooooo     +O+++OXo ooo   ",
"           oooo       oooooXoooXooXooooooooooo   +O+OOoXoooo    ",
"          oooo         ooooXooo     ooooooooooo O+OooooXXooo    ",
"         ooooo          oooXX            oooooooooooXXoooXoo    ",
"       XXoooo          XXoXoo                ooooooXXXoooo      ",
"      ooooo           oooooo                       XXXXXo       "
};
