/* XPM */
static char *_0145eeb15294b3bc3f172cbd857f927HL5nsiATR8vzbfWk[] = {
/* columns rows colors chars-per-pixel */
"64 64 132 2 ",
"   c None",
".  c #252625",
"X  c #282727",
"o  c #282B27",
"O  c #2A2728",
"+  c #2B2C2B",
"@  c #33272D",
"#  c #38262F",
"$  c #322E2E",
"%  c #3B2B2C",
"&  c #2F302E",
"*  c #31312E",
"=  c #3E302C",
"-  c #322E31",
";  c #382D34",
":  c #2F3030",
">  c #343433",
",  c #3A3534",
"<  c #363836",
"1  c #393936",
"2  c #37363B",
"3  c #3B3639",
"4  c #363A3A",
"5  c #3A3B3A",
"6  c #68251D",
"7  c #6A1F28",
"8  c #7D1620",
"9  c #4B2428",
"0  c #532E2C",
"q  c #5F2C29",
"w  c #45322D",
"e  c #4B322D",
"r  c #513327",
"t  c #51302E",
"y  c #402730",
"u  c #432E34",
"i  c #422B38",
"p  c #562036",
"a  c #5A2B31",
"s  c #433534",
"d  c #463836",
"f  c #423D3B",
"g  c #4F3938",
"h  c #583035",
"j  c #6E2724",
"k  c #612A2B",
"l  c #752521",
"z  c #74292F",
"x  c #7E2E2E",
"c  c #683535",
"v  c #7B3631",
"b  c #3F413F",
"n  c #41413E",
"m  c #363F42",
"M  c #3D3C43",
"N  c #334244",
"B  c #3F4140",
"V  c #364048",
"C  c #394449",
"Z  c #434443",
"A  c #464947",
"S  c #484945",
"D  c #464948",
"F  c #4A4B4B",
"G  c #4F514E",
"H  c #51524D",
"J  c #545453",
"K  c #585651",
"L  c #565957",
"P  c #565758",
"I  c #5B5B5B",
"U  c #615D5B",
"Y  c #64625D",
"T  c #5D5F60",
"R  c #626263",
"E  c #6B6664",
"W  c #676669",
"Q  c #69676A",
"!  c #676A69",
"~  c #6B6B6A",
"^  c #706E6F",
"/  c #75746F",
"(  c #6E6C70",
")  c #6F7172",
"_  c #737375",
"`  c #747379",
"'  c #7A7679",
"]  c #7A7A7B",
"[  c #8A1B1C",
"{  c #9E1918",
"}  c #AA180C",
"|  c #B9140B",
" . c #B11C0E",
".. c #B81415",
"X. c #88221C",
"o. c #8F2C19",
"O. c #97271A",
"+. c #9F2018",
"@. c #801F21",
"#. c #892723",
"$. c #852922",
"%. c #8D3126",
"&. c #823B3C",
"*. c #C61507",
"=. c #CD1305",
"-. c #C31508",
";. c #C81D0F",
":. c #D81107",
">. c #D81607",
",. c #DA130D",
"<. c #D8170D",
"1. c #DC1A0B",
"2. c #DD1A0E",
"3. c #C11415",
"4. c #C11910",
"5. c #D01312",
"6. c #D01710",
"7. c #DF1A12",
"8. c #E1160C",
"9. c #EA170C",
"0. c #EC180E",
"q. c #C52611",
"w. c #C0251B",
"e. c #DD2314",
"r. c #7C7D84",
"t. c #7F8284",
"y. c #808284",
"u. c #868989",
"i. c #908D89",
"p. c #8E8F90",
"a. c #959293",
"s. c #959695",
/* pixels */
"                                                                                                                                ",
"                                                                                                                                ",
"                                                                                                                                ",
"                                                                                                                                ",
"                                                                                                                                ",
"                                                                                                                                ",
"                                                                                                                                ",
"                                                                                                                                ",
"                                                                                                                                ",
"                                                                                                                                ",
"                                                                                                                                ",
"                                                                                                                                ",
"                                                                                                                                ",
"                                                                                                                                ",
"                                                                                                                                ",
"                                                                                                                                ",
"                                                                                                                                ",
"                                                                                                                                ",
"                                                                      . X . X                                                   ",
"                                                                      . . . X                                                   ",
"                                  + X + o         + X o X + +             X X X +                                               ",
"                                  o + o +         + X X X X o             + + o +                                               ",
"                              + + + +                 o o + + + +             + + O +                 + + + X X +               ",
"                              o + o +                 O X + + + +             : : : +                 + + + + + +               ",
"                              + o o o + +                 + $ $ * > $ ; > > > < > > + + @                 O + + +               ",
"                              o + + X + +                 + + % e a y ; ; < < 2 m 2 > # 7                 + + + +               ",
"                          + & o + o o + + + + + +         + + , v  .@.9 ; 3 2 5 4 m i [ ..            + + o + + +               ",
"                          & o & o > Z Z < + * & +         : + ; x e.7.X.; 5 3 m N M p 3.5.            + $ + + + +               ",
"                      & & & & > Z ~ / n * * : : > > $ - * > > , k q.0.6.8 u 2 m C M z <.-.j > > > $ $ - > > + + +               ",
"                      * * * > A ] i.H + & * 5 4 > > > > > > , 3 w o.8.9.,.{ l k h g &.w.#.e < 2 5 > - < 5 , > + +               ",
"                  + * * 1 b S / a.U + * < A L J Z 3 2 2 2 2 5 1 , r +.2.1.:.*.-.| %.c a t s f Z Z > * Z S 5 > > * + +           ",
"                  & * 1 5 Z ) s._ 1 + * b Y ~ ! P Z 5 5 5 5 5 1 1 = 0 O.;.,.=.-.} 6 w 2 d d f K J > > F I Z > + > + +           ",
"              + & & < 1 Z R p.t.n o * 1 P ( ` ( I f 5 5 5 5 5 5 1 1 = e l #.$.j t s 4 < 4 b n U I > * I ^ S < > + + +           ",
"              & & * b b T t.u.J * * < A ! ' ` R S 1 3 3 f 5 4 5 1 1 , , w e e s 5 4 1 b 1 1 n R U , - R ] F > + $ + +           ",
"          o + * * 1 B L ] u.! 1 * * 5 I '         2 5 5 5 5 5 2 , < < , = , 3 1 1 1 < < < < b E Y > > R ] J > & + + +           ",
"          + + * > n L _ t._ G > * > Z W '         5 5 2 5 5 , < < < > > < > > , < > > < < < b E Y > > R ] I > + $ + &           ",
"          + * > b H ^ t.r.R N > * b n             4 5 5 2 , <         > > * > * > > & > > > b Y K , 4 T ] R 4 & & + +           ",
"          + & > b Y ] r.` I 1 * * > b             , < < < < >         > & & & * & > & > > > 5 J S 1 B R ` R 5 & + & :           ",
"      + + + + > b             & *             > > > > > >                                     S n 5 G W ) R 5 & &               ",
"      o + + * > <             & &             : : - > - >                                     b n Z P ! ! I 5 > +               ",
"      + + : :                                 & + + :                                                 W R I 5 : :               ",
"      + + + >                                 & + + +                                                 I J S 5 : :               ",
"      + + + >                                 o o O + + +                                             Z 5 5 >                   ",
"      + + + >                                 o + X o + o                                             < < > >                   ",
"      + +                                                                                         5 > > >                       ",
"      + +                                                                                         < : & &                       ",
"                                                                                                  + &                           ",
"                                                                                                  + +                           ",
"                                                                                                                                ",
"                                                                                                                                ",
"                                                                                                                                ",
"                                                                                                                                ",
"                                                                                                                                ",
"                                                                                                                                ",
"                                                                                                                                ",
"                                                                                                                                ",
"                                                                                                                                ",
"                                                                                                                                ",
"                                                                                                                                ",
"                                                                                                                                ",
"                                                                                                                                ",
"                                                                                                                                ",
"                                                                                                                                ",
"                                                                                                                                "
};
