/* XPM */
static char *_3d85356ee264bc9e09cbc4b70713d5f8p3STLIsWKJ5pdla[] = {
/* columns rows colors chars-per-pixel */
"64 64 98 2 ",
"   c None",
".  c black",
"X  c #282927",
"o  c #2A2C28",
"O  c #2C2D2C",
"+  c #2C2E2D",
"@  c #2E2F2D",
"#  c #2F2F2E",
"$  c #2E302E",
"%  c #30302F",
"&  c #2F2F30",
"*  c #2F3131",
"=  c #323231",
"-  c #333331",
";  c #323132",
":  c #313533",
">  c #353433",
",  c #363535",
"<  c #373938",
"1  c #393938",
"2  c #3A393B",
"3  c gray23",
"4  c #68261F",
"5  c #522E2A",
"6  c #5B2B2B",
"7  c #5C282C",
"8  c #5B2D2C",
"9  c #4F302B",
"0  c #513327",
"q  c #6E2528",
"w  c #632B2D",
"e  c #762321",
"r  c #722620",
"t  c #792E25",
"y  c #762E2F",
"u  c #3E403F",
"i  c #3F4242",
"p  c #434445",
"a  c #444447",
"s  c #474547",
"d  c #454947",
"f  c #47484A",
"g  c #474C4A",
"h  c #4B494A",
"j  c #484A4A",
"k  c #4A4B4E",
"l  c #4D4D4F",
"z  c #4E4F50",
"x  c #514F50",
"c  c #515352",
"v  c #565051",
"b  c #59595A",
"n  c #615F60",
"m  c #625F62",
"M  c #636466",
"N  c #646467",
"B  c #6A676A",
"V  c #68686A",
"C  c #69686B",
"Z  c #6A696A",
"A  c #6A696B",
"S  c #69686C",
"D  c #6C696E",
"F  c #6C6A6E",
"G  c #6C6D6C",
"H  c #74696D",
"J  c #6E6D71",
"K  c #6F6D71",
"L  c #6C6E70",
"P  c #6D6C72",
"I  c #6F6D73",
"U  c #6F6F72",
"Y  c #706B72",
"T  c #706E70",
"R  c #706D72",
"E  c #6D7071",
"W  c #717171",
"Q  c #727172",
"!  c #737076",
"~  c #757477",
"^  c #747378",
"/  c #A01A18",
"(  c #892119",
")  c #8C2C19",
"_  c #9E2018",
"`  c #B6201F",
"'  c #801921",
"]  c #801F21",
"[  c #832623",
"{  c #8B2423",
"}  c #802822",
"|  c #DD1A0A",
" . c #DE190D",
".. c #D01811",
"X. c #966162",
"o. c #7B8890",
"O. c #838185",
"+. c #858288",
/* pixels */
"                                                                                                                                ",
"                                                                                                                                ",
"                                                                                                                                ",
"                                                                                                                                ",
"                                                                                                                                ",
"                                                                                                                                ",
"                                                                                                                                ",
"                                                                                                                                ",
"                                                                                                                                ",
"                                                                                                                                ",
"                                                                                                                                ",
"                                                                                                                                ",
"                                                                                                                                ",
"                                                                                                                                ",
"                                                                                                                                ",
"                                                                                                                                ",
"                                                                                    . . . . . .                                 ",
"                                                                                    . . . . . .                                 ",
"                            . . . . . . . .                                             . . . . . .                             ",
"                            . . . . . . . .                                             . . . . . .                             ",
"                    . . . . . . . . . .                                                 . . . . . . . .                         ",
"                    . . . . . . . . . .                                                 . . . . . . . .                         ",
"                . . . . . . . . . . . .                                                 . . . . . . . .                         ",
"                . . . . . . . . . . . .                                                 . . . . . . . .                         ",
"                . . . . . . . . . . . .                                                 . . . . . . . . . .                     ",
"                . . . . . . . . . . . .                                                 . . ; 2 . . . . . .                     ",
"            . . . . p p . . . . . . . .                             . . . .         . . . . l p . . . . . .                     ",
"            . . . p p f . . . . $ @ @ .                             . . . .         . . . . Y p . . . . . .                     ",
"            . . . p Z B . . . < : . . . .       . . . . . .             . . . .     . . . I I p . . . . . . . .                 ",
"            . . . p I ! . . . j d ; @ . . .     . . . . . .             . . . .     . . . I I p . . . . . . . .                 ",
"            . . . p I R . . . z I p + . . .         . . . . . .             . . . . . . . I I p > . . . . I . .                 ",
"            . . p p I D . . . k I I p . . .         . . . . . .             . . . . . . . I I p . . . . I I p .                 ",
"        . . . . a G I F . . . a ^ I I p . . .           . . . . . . . . . . . . . . . . / I I p . . . p I I p .                 ",
"        . . . . a I I I p . . p I I I I p ; . .         . . . . . . . . . . . . . . . 7 | I I p . . . p I I p .                 ",
"        . . . p n I I I p . . i E I & I I p . . .       . . . . | [ . . . . . . . . { | | I I p . . p p I I p . . .             ",
"        . . . p Z I I I p . . 3 W I & & I I p . . .     . . . y | | ( . . . . . . / ` | | I I p . . . p I I p . . .             ",
"        . . . p I I I I p . . - p I p @ & I I x . . .   . . . 8 | | ..' . . . . . | | | | o.I Z . . . p I I p . . .             ",
"        . . . p Q I I I p . . . p I I & & & I I j . . . . . . . ) | | | / e w . . / | | X.+.I N . . p p I p . . . .             ",
"        . . . p Q I I I p p . . , I I I p & & I R s . . . . . . 0 _  .| | | | | t . / /     O.m . . p I I p . . . .             ",
"        . . . p Q I I I I p p . . p I I I & & * R R . . . . . . . 5 | | | | | | r . . .     H v . . p I G p . . . .             ",
"        . . . p I I I I I b p . . ;             . . . . . . . . . . 9 r [ } q 6 . . . . . .     . p p I c . . . . .             ",
"        . . . p I I ~ I I M p . . .             . . . . . . . . . . . . . . . . . . . . . .     . p I I p . . . . .             ",
"        . . . p I I     I I p X             . . . . . . . . . . . . . . . . . . . . . . . .     p p I I p . . .                 ",
"        . . . p I I     Z I u o             . . . . . . . . . . . . . . . . . . . . . . . .     p 2 I I p . . .                 ",
"        . . . p I I                     . . . . . . . .             . . . . . . . . . . . .         I Z . . . .                 ",
"        . . . p I I                     . . . . . . . .             . . . . . . . . . . . .         I f . . . .                 ",
"        . . . p                         . . . . . .                                                     . .                     ",
"        . . . .                         . . . . . .                                                     . .                     ",
"        . . . .                         . . . .                                                     . . . .                     ",
"        . . . .                         . . . .                                                     . . . .                     ",
"            . .                             . . . .                                                 . .                         ",
"            . .                             . . . .                                                 . .                         ",
"                                                                                                                                ",
"                                                                                                                                ",
"                                                                                                                                ",
"                                                                                                                                ",
"                                                                                                                                ",
"                                                                                                                                ",
"                                                                                                                                ",
"                                                                                                                                ",
"                                                                                                                                ",
"                                                                                                                                ",
"                                                                                                                                ",
"                                                                                                                                "
};
