/* XPM */
static char *d2c8a6904a7b428abf915e70d813f3a2aVuSAi3mYShpKBoL[] = {
/* columns rows colors chars-per-pixel */
"64 64 16 1 ",
"  c None",
". c black",
"X c #5A1D27",
"o c #692628",
"O c #732522",
"+ c #7F2723",
"@ c #732925",
"# c #801A1E",
"$ c #A8180D",
"% c #BB120A",
"& c #A01A18",
"* c #CB1B0E",
"= c #DD1A0A",
"- c #E01609",
"; c #E1180C",
": c #E21B12",
/* pixels */
"                                                                ",
"                                                                ",
"                                                                ",
"                                                                ",
"                                                                ",
"                                                                ",
"                                                                ",
"                                                                ",
"                                                                ",
"                                                                ",
"                                                                ",
"                                                                ",
"                                                                ",
"                                                                ",
"                                                                ",
"                                                                ",
"                                                                ",
"                                                                ",
"                                                                ",
"                                                                ",
"                                                                ",
"                                                                ",
"                                ....                            ",
"                                ....                            ",
"                      ......      ....                          ",
"                      ......      ....                          ",
"                        ......      ....                        ",
"                        ......      ....                        ",
"                          ................                      ",
"                          ....&..........X                      ",
"                          ...&=&........#=                      ",
"                          ...&=:&......&==                      ",
"                        .....&===&.....&==@.                    ",
"                        ......&-==&O....=+..                    ",
"                    ...........&;====%........  ..              ",
"                    ............&*===$........  ..              ",
"            .....................&==o.............              ",
"            ......................................              ",
"              ....................................              ",
"              ....................................              ",
"              ..............    ..................              ",
"              ..............    ..................              ",
"              ............                    ......            ",
"              ............                    ......            ",
"            ........  ....                    ......            ",
"            ........  ....                    ......            ",
"            ......    ......                                    ",
"            ......    ......                                    ",
"            ..          ..                                      ",
"            ..          ..                                      ",
"                                                                ",
"                                                                ",
"                                                                ",
"                                                                ",
"                                                                ",
"                                                                ",
"                                                                ",
"                                                                ",
"                                                                ",
"                                                                ",
"                                                                ",
"                                                                ",
"                                                                ",
"                                                                "
};
