/* XPM */
static char *_40af5a8b71f4c45e5f8f2bd3549b7e9QWNmsf32ik5VtDLD[] = {
/* columns rows colors chars-per-pixel */
"64 64 36 1 ",
"  c None",
". c black",
"X c #2D2F2A",
"o c #2F2F30",
"O c #323430",
"+ c #323431",
"@ c #343732",
"# c #3A3C38",
"$ c #583035",
"% c #41423F",
"& c #414241",
"* c #404341",
"= c #414242",
"- c #424643",
"; c #434445",
": c #434645",
"> c #454546",
", c #464948",
"< c #484948",
"1 c #4A4D4C",
"2 c #525254",
"3 c #58595B",
"4 c #6E6B70",
"5 c #6E6E70",
"6 c #6F6D73",
"7 c #797579",
"8 c #A01A18",
"9 c #882118",
"0 c #97271A",
"q c #8D3126",
"w c #C81D0F",
"e c #DD1A0A",
"r c #DD1A0E",
"t c #C11415",
"y c #DF1A12",
"u c #E1160C",
/* pixels */
"                                                                ",
"                                                                ",
"                                                                ",
"                                                                ",
"                                                                ",
"                                                                ",
"                                                                ",
"                                                                ",
"                                                                ",
"                                                                ",
"                                                                ",
"                                                                ",
"                                                                ",
"                                                                ",
"                                                                ",
"                                                                ",
"                                                                ",
"                                                                ",
"                                   ....                         ",
"                                   ....                         ",
"                 ....    ......      ....                       ",
"                 ....    ......      ....                       ",
"               ....        ......      ....        ......       ",
"               ....        ......      ....        ......       ",
"               ......        ................        ....       ",
"               ......        ....8..........8        ....       ",
"             ............    ...8e8........8e      ......       ",
"             ....+oo.....    ...8ey9.......te      ......       ",
"           ...oo&66o............8eee8.....8ee8...........       ",
"           ..oo>666X...-.........8uee888$.8e8...o..ooo...       ",
"         ...oo,666...;;2o.........8reeeeeq8....oo..&<;o....     ",
"         ...o-666...&;66o..........0weeee8....oo6..;6;o....     ",
"       .....o;66%...;666o...........8888.......66..;6;o....     ",
"       ...oo6666...;;66;.......................66..66;o....     ",
"     ....oo6666#..;;66   ......................66..66;o....     ",
"     ...oo66661..+;67    .....................o6...66;o....     ",
"     ...oo6666...@;      ......    ...........o;...66;o....     ",
"     ...o;666;...;;      ......    ................66;o....     ",
"   .....;      ..      ......                  ....66;o..       ",
"   .....;      ..      ......                  ...366;o..       ",
"   ....                ....                        ;66...       ",
"   ....                ....                        ;6....       ",
"   ....                ......                      ....         ",
"   ....                ......                      ....         ",
"   ..                                             ...           ",
"   ..                                            ....           ",
"                                                 ...            ",
"                                                 ..             ",
"                                                                ",
"                                                                ",
"                                                                ",
"                                                                ",
"                                                                ",
"                                                                ",
"                                                                ",
"                                                                ",
"                                                                ",
"                                                                ",
"                                                                ",
"                                                                ",
"                                                                ",
"                                                                ",
"                                                                ",
"                                                                "
};
