/* XPM */
static char *_1af4c3299f14692ac7cd9cc305191ef9netjVRpeGjghovW[] = {
/* columns rows colors chars-per-pixel */
"64 64 146 2 ",
"   c None",
".  c #262726",
"X  c #272827",
"o  c #292927",
"O  c #272928",
"+  c #2C2C2B",
"@  c #312E2E",
"#  c #3D2D2D",
"$  c #2F302E",
"%  c #31302E",
"&  c #3B372F",
"*  c #2E2E30",
"=  c #2F3131",
"-  c #343433",
";  c #393534",
":  c #363937",
">  c #393936",
",  c #3B3639",
"<  c #363A3A",
"1  c #3A3A3A",
"2  c #68261F",
"3  c #4B272B",
"4  c #522E2A",
"5  c #5B2B2C",
"6  c #43342F",
"7  c #4F302B",
"8  c #513327",
"9  c #432D31",
"0  c #4C2F37",
"q  c #542D33",
"w  c #453334",
"e  c #493534",
"r  c #403638",
"t  c #433A3E",
"y  c #4B3B3E",
"u  c #593337",
"i  c #53373B",
"p  c #6E2528",
"a  c #632B2D",
"s  c #742521",
"d  c #792E25",
"f  c #762E2F",
"g  c #622E38",
"h  c #69343B",
"j  c #743333",
"k  c #3F403F",
"l  c #373840",
"z  c #3E3E40",
"x  c #403F42",
"c  c #613C41",
"v  c #364140",
"b  c #3A4244",
"n  c #434345",
"m  c #454946",
"M  c #48474B",
"N  c #474A4A",
"B  c #4B4B4B",
"V  c #504E4F",
"C  c #4F4F50",
"Z  c #514F52",
"A  c #545254",
"S  c #575658",
"D  c #5B555D",
"F  c #5D5B5D",
"G  c #774445",
"H  c #605F5E",
"J  c #5F5C62",
"K  c #625F63",
"L  c #636364",
"P  c #656569",
"I  c #69666A",
"U  c #6A6A6C",
"Y  c #74696D",
"T  c #6E6D72",
"R  c #706D72",
"E  c #6D7071",
"W  c #737076",
"Q  c #777576",
"!  c #737274",
"~  c #797473",
"^  c #747379",
"/  c #77767B",
"(  c #79747C",
")  c #79747B",
"_  c #777B7D",
"`  c #75797B",
"'  c #7D7B7F",
"]  c #7B7E7F",
"[  c #7B7B7C",
"{  c #B31209",
"}  c #AD1D10",
"|  c #A01A18",
" . c #892119",
".. c #8C2C19",
"X. c #9B2419",
"o. c #AC211E",
"O. c #B6201F",
"+. c #801C21",
"@. c #A01F24",
"#. c #832623",
"$. c #8B2423",
"%. c #802822",
"&. c #A92528",
"*. c #CB1105",
"=. c #C31509",
"-. c #C51C0F",
";. c #D61506",
":. c #D81006",
">. c #DA130D",
",. c #DE1A0C",
"<. c #C41E1B",
"1. c #D01811",
"2. c #DD1913",
"3. c #E0150B",
"4. c #EB170E",
"5. c #C12612",
"6. c #DA2316",
"7. c #C02222",
"8. c #8A4E50",
"9. c #95555A",
"0. c #966162",
"q. c #857F7F",
"w. c #827E7E",
"e. c #7A7780",
"r. c #7C7981",
"t. c #7F7B85",
"y. c #7F7F81",
"u. c #827F84",
"i. c #847F84",
"p. c #817F83",
"a. c #7F878E",
"s. c #7B8890",
"d. c #818285",
"f. c #838283",
"g. c #8A8987",
"h. c #80838D",
"j. c #858689",
"k. c #89858B",
"l. c #8D8A8B",
"z. c #92908E",
"x. c #808690",
"c. c #828992",
"v. c #8C8D93",
"b. c #8F9198",
"n. c #95919A",
"m. c #9C969F",
/* pixels */
"                                                                                                                                ",
"                                                                                                                                ",
"                                                                                                                                ",
"                                                                                                                                ",
"                                                                                                                                ",
"                                                                                                                                ",
"                                                                                                                                ",
"                                                                                                                                ",
"                                                                                                                                ",
"                                                                                                                                ",
"                                                                                                                                ",
"                                                                                                                                ",
"                                                                                                                                ",
"                                                                                                                                ",
"                                                                                                                                ",
"                                                                                                                                ",
"                                                                                    . . . . O O                                 ",
"                                                                                    . . . O . O                                 ",
"                            o O o O O . . .                                             . . O O + o                             ",
"                            + o o + O . . O                                             O o O O O o                             ",
"                    $ + + + + o o O O o                                                 O o + + + + + *                         ",
"                    + + + + + + + + + o                                                 O + + + + + + +                         ",
"                + + + % + + + + + + + +                                                 + + + + * + $ -                         ",
"                + + * + * @ + + + + + o                                                 + + + * = + + +                         ",
"                $ + $ $ * + $ $ + + + +                                                 + + + - - $ $ + + +                     ",
"                + $ + $ * = % + + + * +                                                 + + % , = % + * $ $                     ",
"            $ + + $ - - * + = + % + + $                             . . . O         o + + @ C J - + + + + =                     ",
"            O + $ - N N * + - - $ = $ +                             . . O o         + + + - R ( : + - + + $                     ",
"            + + $ : U I @ o - < - + $ + + +     $ + + + + +             O . + O     + * * x k.e., @ % + @ - + +                 ",
"            + + - 1 r.^ * o = N N = + + + %     + = + @ + +             + + + $     % % = A n.^ - % % % % > + +                 ",
"            + + + B f.R * o * C ` A + + + +         + + + + + +             $ $ % * @ @ ; K n.T ; * = * 1 F - +                 ",
"            + + = H f.U + o * M f.d.A + + @         @ + @ + % =             = = = - ; , 0 R n.U ; - % @ B ~ $ +                 ",
"        o + o + 1 R u.U - o + n E a.] S = o + %         @ % @ % - % # - - - - : : ; - 9 i ) n.U : - * + D w.: o                 ",
"        o + + $ V ( r.T - o + n U ` _ ] S - + +         + + @ 6 q 9 ; ; , < < < , : ; 5 c p.b.P : - % o I w.- +                 ",
"        + o + % H p.e.R 1 + + n E E P ` [ S + + + *     @ @ # j } s 3 ; , , 1 < , 0 +.@.c u.v.I , - * + Q Q $ $ $ +             ",
"        o + o % U p.( R n o + 1 E ` J H _ y.S + + +     % + , f 6.2. .9 1 z v v x h O.7.9.k.c.I r @ + * f.U = $ + +             ",
"        O + + : Y d.W U V o + % H w.U V P [ p.V * + * @ * - , 5 5.4.1.s e l b b 1 j <.5.9.s.h.I 1 % o > l.F $ O + +             ",
"        + o + : E d.R I H $ $ $ B [ y.F B P f.[ B + @ * @ - , 9 ..3.4.>.| s a u y h &.&.0.j.j.P 1 % + N z.m + + + +             ",
"        o + + ; W f.W P I > + $ > F a.E S M K u.w.M @ * - - ; ; 4 | 2.,.:.*.=.{ d 0 q h     f.K ; $ o H g.: $ $ + o             ",
"        o + o ; E f.~ D W N o + + n U ~ T Z M K R K , - ; - > ; & 4 X.-.;.*.*.{ p ; l t     Y A ; $ % Q U $ $ + O +             ",
"        $ + + : ! g.! F W S $ O + -             z M z , : : - : ; & 7 s #.%.s 5 w < < < < ,     % + > f.A + $ + o +             ",
"        o o + : ! j.! F ! L - o o +             - - l , , - : - ; & ; 6 e 6 , 1 1 1 < < , :     % o N f.v O + + + .             ",
"        X X o k ^ j.    T U : .             1 > - , , , , - : : ; : ; ; ; ; ; : : : < < : >     @ o K f.: + + o                 ",
"        X X X k / j.    U T k +             , > : : : , < - - - - - ; % - & : - - - ; : : :     % > f.] - + + .                 ",
"        X O + k ! j.                    - - : - : - : -             - - - $ - - - % - - - -         m.U = + O +                 ",
"        X O o $ L d.                    o - - - : - - -             $ - % = = % = $ - - - =         z.N + + + .                 ",
"        X o o +                         + * - - - -                                                     o +                     ",
"        X o o o                         o + % % - -                                                     o +                     ",
"        . O o o                         o + + +                                                     + + + +                     ",
"        O O o +                         + o + +                                                     + + o +                     ",
"            O O                             o o o O                                                 + o                         ",
"            O $                             + O O O                                                 + +                         ",
"                                                                                                                                ",
"                                                                                                                                ",
"                                                                                                                                ",
"                                                                                                                                ",
"                                                                                                                                ",
"                                                                                                                                ",
"                                                                                                                                ",
"                                                                                                                                ",
"                                                                                                                                ",
"                                                                                                                                ",
"                                                                                                                                ",
"                                                                                                                                "
};
