/* XPM */
static char *_370b9bcbf4c47089d5c2c623cd050b7807DPkr5Kf5i7x0F[] = {
/* columns rows colors chars-per-pixel */
"64 64 92 1 ",
"  c None",
". c #262726",
"X c #282727",
"o c #272827",
"O c #282827",
"+ c #282728",
"@ c #2C2C2C",
"# c #312E2E",
"$ c #3D2C2B",
"% c #2F302F",
"& c #32312E",
"* c #3D322E",
"= c #332D31",
"- c #3C2E34",
"; c #2F3030",
": c #333332",
"> c #3A3433",
", c #363836",
"< c #353338",
"1 c #3C353C",
"2 c #363B3C",
"3 c #3B3A3A",
"4 c #6B251E",
"5 c #5A1D27",
"6 c #492E23",
"7 c #48252F",
"8 c #512125",
"9 c #542B25",
"0 c #542C2E",
"q c #44342C",
"w c #4B312F",
"e c #442D39",
"r c #5C2137",
"t c #5E2933",
"y c #423334",
"u c #433F3E",
"i c #49383E",
"p c #5F373A",
"a c #692628",
"s c #612D2E",
"d c #732522",
"f c #7E2722",
"g c #732925",
"h c #70292A",
"j c #6F322D",
"k c #603137",
"l c #6E3535",
"z c #343B40",
"x c #3C3E40",
"c c #364244",
"v c #394246",
"b c #3B444B",
"n c #454040",
"m c #80161F",
"M c #801A1E",
"N c #9A1F15",
"B c #9B1918",
"V c #A8180D",
"C c #BB120A",
"Z c #BF1308",
"A c #B31B0C",
"S c #B51618",
"D c #8F2116",
"F c #872A15",
"G c #9F2517",
"H c #861E20",
"J c #8B2724",
"K c #832822",
"L c #983429",
"P c #812D37",
"I c #D60E05",
"U c #C81003",
"Y c #CA1003",
"T c #C01408",
"R c #CB1B0E",
"E c #D71305",
"W c #D4150F",
"Q c #D9110B",
"! c #C21F17",
"~ c #C3191B",
"^ c #D11816",
"/ c #DE1E15",
"( c #E01708",
") c #E01609",
"_ c #ED160A",
"` c #ED170C",
"' c #E1180C",
"] c #E21B12",
"[ c #C0260F",
"{ c #C5231C",
"} c #DB2212",
"| c #8E4041",
/* pixels */
"                                                                ",
"                                                                ",
"                                                                ",
"                                                                ",
"                                                                ",
"                                                                ",
"                                                                ",
"                                                                ",
"                                                                ",
"                                                                ",
"                                                                ",
"                                                                ",
"                                                                ",
"                                                                ",
"                                                                ",
"                                                                ",
"                                                                ",
"                                                                ",
"                                                                ",
"                                                                ",
"                                                                ",
"                                                                ",
"                                ....                            ",
"                                ...o                            ",
"                      ::;@@@      ..OO                          ",
"                      :;@@@@      @@@O                          ",
"                        @;@@@@      @@@@                        ",
"                        ;@@@#&      ::#@                        ",
"                          @;=&&=>:,,,3,&@=                      ",
"                          @@&qt7-<133x2:=5                      ",
"                          @;:jAH5:i1xz2eMS                      ",
"                          =@#h}]D$2xvzxr~^                      ",
"                        :@@@#9[`WfyzbbiP/!g>                    ",
"                        :&#&#*FE_QBdskk|{K*:                    ",
"                    ,,,:=@#@##6N))IYZCLl0q*:::  @@              ",
"                    :,::@@O#&&*9BREYZVd$>>:,::  @@              ",
"            OOOO@o@@@@:@@@@@&&&&0FJKa0>,,:::%:%@@@              ",
"            @@@@@@@@@@@++@#::&:**www33,,::&&:&%%@#              ",
"              @&%@@o@@++@@#:&:::&>>>>,,::::;%@@%&&              ",
"              ,>:;;@@+@+@#::::::::&,>,::::%:;&%%&:              ",
"              33,:@@@++@%:::    ::&:::::%%%%%@%::,              ",
"              1,:@@@@@+@:,,:    %&%%%&%%%%%%%%@;::              ",
"              ,::@@@@.+@3n                    @@@::,            ",
"              :=@@@@..@;1n                    @@@@@:            ",
"            ::@@@@o@  o@:3                    @@@@@@            ",
"            ::@@@@@@  @@;;                    @@@@@@            ",
"            :@@@@o    o@@@@o                                    ",
"            @@@o@@    o@@@@o                                    ",
"            %@          @@                                      ",
"            O@          @@                                      ",
"                                                                ",
"                                                                ",
"                                                                ",
"                                                                ",
"                                                                ",
"                                                                ",
"                                                                ",
"                                                                ",
"                                                                ",
"                                                                ",
"                                                                ",
"                                                                ",
"                                                                ",
"                                                                "
};
