/* XPM */
static char *_8c1a85dfcf74b2bcd7042756af68a56fsugG7E5WcNNZJmW[] = {
/* columns rows colors chars-per-pixel */
"64 64 36 1 ",
"  c None",
". c black",
"X c #2D2F2A",
"o c #2F2F30",
"O c #323430",
"+ c #323431",
"@ c #343732",
"# c #3A3C38",
"$ c #583035",
"% c #41423F",
"& c #414241",
"* c #404341",
"= c #414242",
"- c #424643",
"; c #434445",
": c #434645",
"> c #454546",
", c #464948",
"< c #484948",
"1 c #4A4D4C",
"2 c #525254",
"3 c #58595B",
"4 c #6E6B70",
"5 c #6E6E70",
"6 c #6F6D73",
"7 c #797579",
"8 c #A01A18",
"9 c #882118",
"0 c #97271A",
"q c #8D3126",
"w c #C81D0F",
"e c #DD1A0A",
"r c #DD1A0E",
"t c #C11415",
"y c #DF1A12",
"u c #E1160C",
/* pixels */
"                                                                ",
"                                                                ",
"                                                                ",
"                                                                ",
"                                                                ",
"                                                                ",
"                                                                ",
"                                                                ",
"                                                                ",
"                                                                ",
"                                                                ",
"                                                                ",
"                                                                ",
"                                                                ",
"                                                                ",
"                                                                ",
"                                                                ",
"                                                                ",
"                         ....                                   ",
"                         ....                                   ",
"                       ....      ......    ....                 ",
"                       ....      ......    ....                 ",
"       ......        ....      ......        ....               ",
"       ......        ....      ......        ....               ",
"       ....        ................        ......               ",
"       ....        8..........8....        ......               ",
"       ......      e8........8e8...    ............             ",
"       ......      et.......9ye8...    .....oo+....             ",
"       ...........8ee8.....8eee8............X66=oo...           ",
"       ...ooo..o...8e8.$888eeu8.........;...X666>oo..           ",
"     ....o;<=..oo....8qeeeeer8.........o2;>...666,oo...         ",
"     ....o;6;..6oo....8eeeew0..........o66;=...666-o...         ",
"     ....o;6;..66.......8888...........o666=...%66;o.....       ",
"     ....o;66..66.......................;66->...6666oo...       ",
"     ....o;66..66......................   66;;..#6666oo....     ",
"     ....o;66...6o.....................    76;+..16666oo...     ",
"     ....o;66...;o...........    ......      ;@...6666oo...     ",
"     ....o;66................    ......      ;;...;666;o...     ",
"       ..o;66....                  ......      ..      ;.....   ",
"       ..o;663...                  ......      ..      ;.....   ",
"       ...66;                        ....                ....   ",
"       ....6;                        ....                ....   ",
"         ....                      ......                ....   ",
"         ....                      ......                ....   ",
"           ...                                             ..   ",
"           ....                                            ..   ",
"            ...                                                 ",
"             ..                                                 ",
"                                                                ",
"                                                                ",
"                                                                ",
"                                                                ",
"                                                                ",
"                                                                ",
"                                                                ",
"                                                                ",
"                                                                ",
"                                                                ",
"                                                                ",
"                                                                ",
"                                                                ",
"                                                                ",
"                                                                ",
"                                                                "
};
