/* XPM */
static char *b25bab16312443e283b799cbdc1ccbefk6lIARZgWPgiT2ao[] = {
/* columns rows colors chars-per-pixel */
"64 64 98 2 ",
"   c None",
".  c black",
"X  c #282927",
"o  c #2A2C28",
"O  c #2C2D2C",
"+  c #2C2E2D",
"@  c #2E2F2D",
"#  c #2F2F2E",
"$  c #2E302E",
"%  c #30302F",
"&  c #2F2F30",
"*  c #2F3131",
"=  c #323231",
"-  c #333331",
";  c #323132",
":  c #313533",
">  c #353433",
",  c #363535",
"<  c #373938",
"1  c #393938",
"2  c #3A393B",
"3  c gray23",
"4  c #68261F",
"5  c #522E2A",
"6  c #5B2B2B",
"7  c #5C282C",
"8  c #5B2D2C",
"9  c #4F302B",
"0  c #513327",
"q  c #6E2528",
"w  c #632B2D",
"e  c #762321",
"r  c #722620",
"t  c #792E25",
"y  c #762E2F",
"u  c #3E403F",
"i  c #3F4242",
"p  c #434445",
"a  c #444447",
"s  c #474547",
"d  c #454947",
"f  c #47484A",
"g  c #474C4A",
"h  c #4B494A",
"j  c #484A4A",
"k  c #4A4B4E",
"l  c #4D4D4F",
"z  c #4E4F50",
"x  c #514F50",
"c  c #515352",
"v  c #565051",
"b  c #59595A",
"n  c #615F60",
"m  c #625F62",
"M  c #636466",
"N  c #646467",
"B  c #6A676A",
"V  c #68686A",
"C  c #69686B",
"Z  c #6A696A",
"A  c #6A696B",
"S  c #69686C",
"D  c #6C696E",
"F  c #6C6A6E",
"G  c #6C6D6C",
"H  c #74696D",
"J  c #6E6D71",
"K  c #6F6D71",
"L  c #6C6E70",
"P  c #6D6C72",
"I  c #6F6D73",
"U  c #6F6F72",
"Y  c #706B72",
"T  c #706E70",
"R  c #706D72",
"E  c #6D7071",
"W  c #717171",
"Q  c #727172",
"!  c #737076",
"~  c #757477",
"^  c #747378",
"/  c #A01A18",
"(  c #892119",
")  c #8C2C19",
"_  c #9E2018",
"`  c #B6201F",
"'  c #801921",
"]  c #801F21",
"[  c #832623",
"{  c #8B2423",
"}  c #802822",
"|  c #DD1A0A",
" . c #DE190D",
".. c #D01811",
"X. c #966162",
"o. c #7B8890",
"O. c #838185",
"+. c #858288",
/* pixels */
"                                                                                                                                ",
"                                                                                                                                ",
"                                                                                                                                ",
"                                                                                                                                ",
"                                                                                                                                ",
"                                                                                                                                ",
"                                                                                                                                ",
"                                                                                                                                ",
"                                                                                                                                ",
"                                                                                                                                ",
"                                                                                                                                ",
"                                                                                                                                ",
"                                                                                                                                ",
"                                                                                                                                ",
"                                                                                                                                ",
"                                                                                                                                ",
"                                . . . . . .                                                                                     ",
"                                . . . . . .                                                                                     ",
"                            . . . . . .                                             . . . . . . . .                             ",
"                            . . . . . .                                             . . . . . . . .                             ",
"                        . . . . . . . .                                                 . . . . . . . . . .                     ",
"                        . . . . . . . .                                                 . . . . . . . . . .                     ",
"                        . . . . . . . .                                                 . . . . . . . . . . . .                 ",
"                        . . . . . . . .                                                 . . . . . . . . . . . .                 ",
"                    . . . . . . . . . .                                                 . . . . . . . . . . . .                 ",
"                    . . . . . . 2 = . .                                                 . . . . . . . . . . . .                 ",
"                    . . . . . . p l . . . .         . . . .                             . . . . . . . . p p . . . .             ",
"                    . . . . . . p Y . . . .         . . . .                             . $ O % . . . . f p p . . .             ",
"                . . . . . . . . p I I . . .     . . . .             . . . . . .       . . . . : < . . . B Z p . . .             ",
"                . . . . . . . . p I I . . .     . . . .             . . . . . .     . . . O * d j . . . ! I p . . .             ",
"                . . I . . . . > p I I . . . . . . .             . . . . . .         . . . O p I z . . . R I p . . .             ",
"                . p I I . . . . p I I . . . . . . .             . . . . . .         . . . p I I k . . . D I p p . .             ",
"                . p I I p . . . p I I / . . . . . . . . . . . . . . . .           . . . p I I ! p . . . F I I p . . . .         ",
"                . p I I p . . . p I I | 7 . . . . . . . . . . . . . . .         . . = p I I I I p . . p I I I p . . . .         ",
"            . . . p I I p p . . p I I | | { . . . . . . . . [ | . . . .       . . . p I I & I E i . . p I I I m p . . .         ",
"            . . . p I I p . . . p I I | | ` / . . . . . . ( | | y . . .     . . . p I I & & I W 3 . . p P I I F p . . .         ",
"            . . . p I I p . . . Z I o.| | | | . . . . . ' ..| | 8 . . .   . . . x I I & * p I p : . . p R I R R p . . .         ",
"            . . . . p I p p . . N I +.X.| | / . . w e / | | | ) . . . . . . . h I I & & & I I p . . . p I I R W p . . .         ",
"            . . . . p I I p . . m O.    / / . t | | | | |  ._ 0 . . . . . . s R I & & p I I I , . . p p I I I W p . . .         ",
"            . . . . p G I p . . v H     . . . 4 | | | | | | 5 . . . . . . . I I & & & I I I p . . p p R I I I W p . . .         ",
"            . . . . . c I p p .     . . . . . . 6 q } [ r 9 . . . . . . . . . .             = . . p b I I I I I p . . .         ",
"            . . . . . p I I p .     . . . . . . . . . . . . . . . . . . . . . .             . . . p M I I ~ I I p . . .         ",
"                . . . p I I p p     . . . . . . . . . . . . . . . . . . . . . . . .             X p I I     I I p . . .         ",
"                . . . p I I 2 p     . . . . . . . . . . . . . . . . . . . . . . . .             o u I F     I I p . . .         ",
"                . . . . Z I         . . . . . . . . . . . .             . . . . . . . .                     I I p . . .         ",
"                . . . . f I         . . . . . . . . . . . .             . . . . . . . .                     I I p . . .         ",
"                    . .                                                     . . . . . .                         p . . .         ",
"                    . .                                                     . . . . . .                         . . . .         ",
"                    . . . .                                                     . . . .                         . . . .         ",
"                    . . . .                                                     . . . .                         . . . .         ",
"                        . .                                                 . . . .                             . .             ",
"                        . .                                                 . . . .                             . .             ",
"                                                                                                                                ",
"                                                                                                                                ",
"                                                                                                                                ",
"                                                                                                                                ",
"                                                                                                                                ",
"                                                                                                                                ",
"                                                                                                                                ",
"                                                                                                                                ",
"                                                                                                                                ",
"                                                                                                                                ",
"                                                                                                                                ",
"                                                                                                                                "
};
