/* XPM */
static char *_07cb35c33ae458db38f70b78150018857DchzgFAiWOMoKO[] = {
/* columns rows colors chars-per-pixel */
"64 64 7 1 ",
"  c None",
". c black",
"X c #2F2443",
"o c #89C93A",
"O c gray62",
"+ c #B2B2B2",
"@ c white",
/* pixels */
"                                                                ",
"                                                                ",
"                                                                ",
"                                                                ",
"                                                                ",
"                                                                ",
"                                                                ",
"                                                                ",
"                                                                ",
"                                                                ",
"                                                                ",
"                                                                ",
"                                                                ",
"                                                                ",
"                                                                ",
"                                                                ",
"                                                                ",
"                                                                ",
"                                                                ",
"                                                                ",
"                                                                ",
"                                                                ",
"                                                                ",
"                                                                ",
"                                                                ",
"                                                                ",
"                                                                ",
"                                                                ",
"                                                                ",
"                                                                ",
"                                                                ",
"                                                                ",
"                                                                ",
"                                                                ",
"                                                                ",
"                                                                ",
"                                                                ",
"                                                                ",
"                                                                ",
"                                                                ",
"                                                                ",
"                                                                ",
"                                                                ",
"                                                                ",
"                                                                ",
"                 @@@@@@@@                                       ",
"                  +++++++@@@@@@                                 ",
"                    +++++++++++@@                               ",
"                      +++++++++++@@                             ",
"                       ++++++++++++@@                           ",
"                         ++++++++++++@   @@.                    ",
"                           +++++++++++@ @@@@.@                  ",
"                            ++++++++++@ . @@@@@@X               ",
"                              ++++++++@   @@@@o.@               ",
"                @  @           +@@@@+++@ @@@O@@@@@              ",
"                @ @+@          @@@@@@@+@+@@@@+@@@@              ",
"                +@+@@        @@@@@@@@@@@@@@@@                   ",
"                @+@+@        @@@@++@@@@@@@@@@                   ",
"                 @+@@@     @@@@@+@+@@@@@++@@                    ",
"                   @@@     @@@@+@@+@@@+@++@                     ",
"                     @@  @@@@+@@@++@@@   @@                     ",
"                      @@@@@@@+@+@+@@@    @@                     ",
"                                @+@@      @@                    ",
"                                 @++      @@@+                  "
};
