/* XPM */
static char *_ebf2984f22b499cd57b0a86afcd039fG9GNwb6s4GXhYM2v[] = {
/* columns rows colors chars-per-pixel */
"64 64 5 1 ",
"  c None",
". c black",
"X c #89C93A",
"o c #B2B2B2",
"O c white",
/* pixels */
"                                                                ",
"                                                                ",
"                                                                ",
"                                                                ",
"                                                                ",
"                                                                ",
"                                                                ",
"                                                                ",
"                                                                ",
"                                                                ",
"                                                                ",
"                                                                ",
"                                                                ",
"                                                                ",
"                                                                ",
"                                                                ",
"                                                                ",
"                                                                ",
"                                                                ",
"                                                                ",
"                                                                ",
"                                                                ",
"                                                                ",
"                                                                ",
"                                                                ",
"                                                                ",
"                                                                ",
"                                                                ",
"                                                                ",
"                                                                ",
"                                                                ",
"                                                                ",
"                                                                ",
"                                                                ",
"                                                                ",
"                                                                ",
"                                                                ",
"                                                                ",
"                                                                ",
"                                                                ",
"                                                                ",
"                                                                ",
"                                                                ",
"                                                                ",
"                                                                ",
"                                                                ",
"                                                                ",
"                                                                ",
"                                                                ",
"                                                                ",
"                        OOOOOOOOOOO   OOO..                     ",
"                     OOOOOOOOOOOOOOO O OOO.OOOO                 ",
"                   OOOOOOOOOOOOOOOoo .OOOOOOX.O                 ",
"                            ooooooooO . OOOOOOOO                ",
"                             oooooooOO OOOoOOOOO                ",
"                             OOOOOOooOoOOOOo                    ",
"                           OOOOOOOOOOOOOOOO                     ",
"              O            OOOOooOOOOOOOOOO                     ",
"           O  OoO        OOOOOoOoOOOOOooOO                      ",
"           OOOoOO        OOOOoOOoOOOoOooO                       ",
"           OooOoOO     OOOOoOOOooOOO   OO                       ",
"            OOoOOo OOOOOOOOoOoOoOOO    OO                       ",
"             oooOOOOOOOOOOO   OoOO      OO                      ",
"                               Ooo      OOOo                    "
};
