/* XPM */
static char *_1e151aaaba2414eaa5958aef09e71f7N7lKWVL2U5AdINbO[] = {
/* columns rows colors chars-per-pixel */
"64 64 7 1 ",
"  c None",
". c black",
"X c #89C93A",
"o c #B2B2B2",
"O c #B4B4B4",
"+ c #F1F1F1",
"@ c white",
/* pixels */
"                                                                ",
"                                                                ",
"                                                                ",
"                                                                ",
"                                                                ",
"                                                                ",
"                                                                ",
"                                                                ",
"                                                                ",
"                                                                ",
"                                                                ",
"                                                                ",
"                                                                ",
"                                                                ",
"                                                                ",
"                                                                ",
"                                                                ",
"                                                                ",
"                                                                ",
"                                                                ",
"                                                                ",
"                                                                ",
"                                                                ",
"                                                                ",
"                                                                ",
"                                                                ",
"                                                                ",
"                                                                ",
"                                                                ",
"                                                                ",
"                                                                ",
"                                                                ",
"                                                                ",
"                                                                ",
"                                                                ",
"                                                                ",
"                                                                ",
"                                                                ",
"                                                                ",
"                                                                ",
"                                                                ",
"                                                                ",
"                                                                ",
"                                                                ",
"                                                                ",
"                                                                ",
"                                                                ",
"                                                                ",
"                                                                ",
"                                                                ",
"                                          @@. @@@               ",
"                                        @@@@.@X.@@              ",
"                                         @@@@@@@@@              ",
"                                        @@@@@@@@                ",
"                            @@@@@@@@@@@  .@@o@@                 ",
"                         @@@@@@@@@@@@@@@o@@@@o                  ",
"                       @@@@@@@@@@@@@@@oo@@@@@                   ",
"                     @@@@@@@@@@@@@@oooo@@@@@@                   ",
"                     oooooooooooooooo@@@oo@@                    ",
"                   @o@    @@@@@o@@o@@@o@oo@                     ",
"                @@@o@@   @@@@+@@@oo@@@   @@                     ",
"                 oo@o@o@@@@  O@o@o@@@    @@                     ",
"                 @@o@@@@        @o@@      @@                    ",
"                                 @oo      @@@o                  "
};
