/* XPM */
static char *b3ae442227f94ebfccb3191140a9f847uvBItBrdFA6LYMN8[] = {
/* columns rows colors chars-per-pixel */
"64 64 15 1 ",
"  c None",
". c #121D2A",
"X c #0D2030",
"o c #24203F",
"O c #491C2C",
"+ c #591932",
"@ c #292349",
"# c #472E54",
"$ c #543360",
"% c #BF2633",
"& c #AA3031",
"* c #FF365A",
"= c #EC4454",
"- c #794B8B",
"; c #F78FD6",
/* pixels */
"                                     ;                          ",
"                                    *;;                         ",
"                                    **;                         ",
"                                   ***;                         ",
"                                   ***;                         ",
"                                  ****;;                        ",
"                                  ****;;                        ",
"                                 *****;;                        ",
"                                 *****;;;                       ",
"                       ;        *****%;;;                       ",
"                      *;;       ****%%;;;                       ",
"                      *;;      *****%%%;;;                      ",
"                     **;;;     ****%%%%;;;                      ",
"                    ***;;;    *****%%%%%;;                     ;",
"                    **;;;;;   ****%%%%%%;;;                   *;",
"                   ***;;;;*  *****%%%++%%;;                 **;;",
"                   **%;;;;** ****%%%%+++%;;                **;;;",
"                  ***%+;%*******%%%%%+++%;;;              ***;;;",
"                 ***%%+%%%*****%%%%%+++++%;;            ****;;;;",
"                 ***%%+++%%%***%%%%%++++++%;           ****;;;;;",
"                ***%%%+++++%***%%%%+++++++%%;         ****%%;;;;",
"               ****%%%+++++%***%%%%+++*+++%%;       *****%%%;;;;",
"               ***%%%++++++%***%%%+++*%%+++%%      ****%%++%%;;;",
"              ****%%%++++++%***%%%++**%%+++%%     ****%+++++%%;;",
"              ****%%+++++++%***%*%+**%+%%+%%%     ***%%+++++%%; ",
"              ***%%%+++++++%*****%**%+++%%%%%    ****%++++++%%; ",
"              **%%%++++++++%****%%*%+++++%%%     ***%%++++++%*  ",
"             ***%%%++++++++%***%%%%+++++++%+    ****%++++++%**  ",
"     ;;      ***%%%++*+++++%***%%%++++++++%+    ***%%++++++%*   ",
"     ;;      ***%%%+**+++++%***%%%++++++++%+   ***%%+++++++%*   ",
"     ;;*     ***%%%**&+++++%****%%++%+++%%++   ***%%++++++%*    ",
"    *;;**    ***%%**&++++++%*****%+%%%++%++   ***%%++++++%%*    ",
"    *;;%**   ***%**++++++++*********;;++%++   **%%+++++++%*     ",
"   ***;%%**  *****%++++++++*********;;;%%%+  **%%+++++++%%*     ",
"   ***%%%%*  ****%%++++++++*********%;;+%++  ;;%%+++++++%*      ",
"   ***%%%%*  ***%%%+++++++%********%%;;++++**;;;;++++++%%*      ",
"    **%%+%%= ***%%%+++++++%********%%%%++++***;;;%+++++%*       ",
"    **%%++%%%***%%%++++++%********%%+%%%%+****%%%%++%%;%*       ",
"    *%%++++%%***%%%++++++%*******%%%++%%+****%%%+++%%;;%%    **;",
"    *%%++++%%***%%*;;+++%******%%%%%++++****%%%++++%%;;%   ***;;",
" *  %%%++++*%****%**;;+%%******%%%%++++****%%%+++**%%;%O *****;;",
" **%%%%+++**%********;;;******%%%+++++****%%%%++**%+++% *%****; ",
" ***%%%++***%********%;;;%**%%%%+++++*****%%%%+%*%+++%O*%+***;; ",
"*****%%%%**%%*******%%%%%%%***%++++++--**++++++*%++++%%%+++***; ",
"**%%%******%%******%%++%%%****++++++$$---+++++**%+++%%%++++%**  ",
"*%%%%%****%%%*****%%+++%%****%%%%+++$$@@-++++**%++++%%%++++%**  ",
"*%%+++****%%%****%%++++*%%**%+++%++$$$@@++++**%+++%%%%+++++%%   ",
"**%+++@***%%%****%%+++**%%*%++++++$$$@@X+++%%+++++%%%+++++%%%   ",
" *%%++@***%+-***%%++***%%%%+++++++$$@@@X++%%++++++%%+++++%%%    ",
" %%%++@@**%+--*%%%+***%%%%%++++++$$$@@XX++%%++++++%%+++++%%     ",
"  %%++$@@&$$---%%+%*%%%%+%++++$$$$$@@@XX+%%++++++%%+++++%%%     ",
"  %%%+$@@$$$----%+%%%%+++++++$$$$$@@@XXX+%++++++%%%+++++%%      ",
"  *%%+$$@$$$@-----XX++++++$$$$$$@@@@@XXX%%++++++%%+++++%        ",
"  *%%$$$$$$@@X-----XX++++XX$$$$$@@@@XXX$$$$++++@@%++++%         ",
"  *%%$$$$$@XXXXX-XXXXX+++X-$$$$@@@@@XX$$$$$$$---@@+++%%         ",
"  *%$$XXXXXXXXXXX--XXXX$XX--$$@@@@@@@@$$$$$$@@---@@+%%          ",
"   @@X.XXX$$XXXXX@XXX$$$$$---@@@----$$$$@@@@@@@@---@%%X         ",
"        XX$$$XX@@@@XX$$$$$$$------XXX$$@@@@@@@@@@@--XXXX        ",
"           $$$@@@@@$$$$$$$$@@@@@@@XXXX$$$@@@@@@@@@@XXXXX        ",
"           $$$@@@X@$$$$$$@@@XXXXXX----XX$$$$$$@$$@@XXXXX        ",
"            ##@@XX@$$$$$@@@XXXXXX$@@----$$$$$$@@@@@XXXX         ",
"             ...XX$$$$$@@@.@@@@XX$@X@XXX$$$$@@@@@@XXXXX         ",
"                ..$$$$@@@.   @@X$..XXXXX$$@@@@@@@XXXXX          ",
"                  ####ooo     o..XXXXXXX$$@@@@@@XXXXX           "
};
