/* XPM */
static char *_8dfc0a1f161435794a7f569809852decmep6CSrcNi86FWV[] = {
/* columns rows colors chars-per-pixel */
"64 64 6 1 ",
"  c None",
". c black",
"X c #9B9B9B",
"o c #99D9EA",
"O c #CDECF5",
"+ c #E6E6E6",
/* pixels */
"                                                                ",
"                                                                ",
"                                                                ",
"                                                                ",
"                                                                ",
"                                                                ",
"                                                                ",
"                                                                ",
"                                                                ",
"                                                                ",
"                                                                ",
"                                                                ",
"                                                                ",
"                                                                ",
"                                                                ",
"                                                                ",
"                                                                ",
"                                                                ",
"                                                                ",
"                                                                ",
"                                                                ",
"                                                                ",
"                                                                ",
"                                                                ",
"                                                                ",
"                                                                ",
"                                                                ",
"                                                                ",
"                                                                ",
"                                                                ",
"                                                                ",
"                                                                ",
"                                                                ",
"                                                                ",
"                                                                ",
"                                                                ",
"                                                                ",
"                                                                ",
"                                                                ",
"                                                                ",
"                                                                ",
"                        ++++++++++++                            ",
"        ++++++++    ++++++++++++++++++++                        ",
"    ++++++++++++ ++++++++++++++++++++++++                       ",
"  +++++++++++++  ++++++++++++++++++++++++++++                   ",
" ++.oo++++XXX        XX+++++++++++++++++++++++++                ",
"+++.O++++++X++      +XXXXXX++++++       ++++++++++              ",
"++++++++XXXX++     ++XXXXXXXXXXXX                               ",
"+++++++++XX++++ ++++XXXXXXXXXXXX                                ",
"      XXXX+++++X+++XXXX++++XXXX                                 ",
"       XXX+++++X+++XXX++++++++++                                ",
"        X+++++++XXXX++++++++++++++                              ",
"        X++++++++++++++++++++++++++                      +      ",
"         +++++++++++X++++XXX++++++++                   +++      ",
"          ++++++++++X++++XXXX++++++++                 X+++      ",
"          ++++XX++++X+++++X++XX+++++++               +X++   +++ ",
"           +++XXX++X +++++X++++X+++++++             ++++XX+++++ ",
"           +++XXX    +++++XX++++X+++++++           +X++X+X++++  ",
"           ++++      ++++XXX++X++XX+++++++         +X+X++XXXX+  ",
"           ++++      ++++++X++X++++XX++++++++      ++X++X++++   ",
"           ++++       +++++X+++X++X+++++++++++++   X+++XX+++    ",
"          ++++         ++++X+++     ++++++++++++++++++XXXXX     ",
"         +++++          +++XX          ++++++++++++++XXXXX      ",
"       XX++++          XX+X++                                   "
};
