/* XPM */
static char *b764734f47994475d80a29c86038c4f0DqWqn8zmZAr6T9ee[] = {
/* columns rows colors chars-per-pixel */
"64 64 4 1 ",
"  c None",
". c #5487FF",
"X c #4DBEEF",
"o c #B7E4F0",
/* pixels */
"                                                                ",
"                                                                ",
"                                                                ",
"                                                                ",
"                                                                ",
"                                                                ",
"                                                                ",
"                                                                ",
"                                                                ",
"                                                                ",
"                                                                ",
"                                                                ",
"                                                                ",
"                                                                ",
"                                                                ",
"                                                                ",
"                                                                ",
"                                                                ",
"                                                                ",
"                                                                ",
"                                                                ",
"                                                                ",
"                                                                ",
"                                                                ",
"                                                                ",
"                                                                ",
"                                                                ",
"                                                                ",
"                                                                ",
"                                                                ",
"                                                                ",
"                                                                ",
"                                                                ",
"                                                                ",
"                                                                ",
"                                                                ",
"                                                                ",
"                                         .                      ",
"                                        .....                   ",
"                                    .. .......                  ",
"                                   ......X..X..                 ",
"                                   .. ..XXXXXX..                ",
"                 ..                    ..XXXXXX..               ",
"                 ...            .. ..   ..XXoXX..               ",
"                  ..            .. ..   ...ooo...               ",
"                         .. ..         ...XXoXX...              ",
"          ..              . .         ...XXXoX...               ",
"          ...          .  .           ...XXXoX...               ",
"      ..   ..         .....            ...XXXXX..               ",
"                       .        ..    ...XXXXX..                ",
"                                ..    ...X..X..                 ",
"                                       .......                  ",
"                                        .....                   ",
"                                         .                      ",
"                                                                ",
"                                                                ",
"                                                                ",
"                                                                ",
"                                                                ",
"                                                                ",
"                                                                ",
"                                                                ",
"                                                                ",
"                                                                "
};
