/* XPM */
static char *a545dab890fc4042d0167a75c6d03da7W15IugQrm7t9pLww[] = {
/* columns rows colors chars-per-pixel */
"64 64 142 2 ",
"   c #2C244A",
".  c #362546",
"X  c #3A2546",
"o  c #3B2847",
"O  c #35264A",
"+  c #3C2649",
"@  c #36284C",
"#  c #3D294C",
"$  c #352A52",
"%  c #3D2B52",
"&  c #3D2E5A",
"*  c #3F3057",
"=  c #41264B",
"-  c #422B4E",
";  c #452750",
":  c #442D52",
">  c #492E55",
",  c #442E59",
"<  c #4A2F59",
"1  c #453154",
"2  c #4A3156",
"3  c #45325B",
"4  c #4C335B",
"5  c #4D395D",
"6  c #513256",
"7  c #52345C",
"8  c #5A365E",
"9  c #52395E",
"0  c #59385F",
"q  c #443260",
"w  c #4D3462",
"e  c #4E3A62",
"r  c #4C376A",
"t  c #4D396A",
"y  c #533562",
"u  c #593664",
"i  c #543B63",
"p  c #5B3C64",
"a  c #523769",
"s  c #5A3769",
"d  c #553A6C",
"f  c #5B3C6B",
"g  c #563B70",
"h  c #5D3D72",
"j  c #613C65",
"k  c #623E6A",
"l  c #693F6B",
"z  c #613F71",
"x  c #603F72",
"c  c #613F73",
"v  c #633E73",
"b  c #663F77",
"n  c #673F78",
"m  c #4F4167",
"M  c #564064",
"N  c #574064",
"B  c #5A4166",
"V  c #5B4267",
"C  c #55436A",
"Z  c #5D426B",
"A  c #5A4569",
"S  c #5F456B",
"D  c #5C406F",
"F  c #5E446C",
"G  c #5D486E",
"H  c #5E4370",
"J  c #5C4A72",
"K  c #60426D",
"L  c #63426D",
"P  c #66426E",
"I  c #63456F",
"U  c #6A426D",
"Y  c #62486E",
"T  c #71446F",
"R  c #624673",
"E  c #644374",
"W  c #6B4573",
"Q  c #6B4474",
"!  c #624970",
"~  c #654973",
"^  c #644D73",
"/  c #674D75",
"(  c #654E77",
")  c #694976",
"_  c #6C4975",
"`  c #644278",
"'  c #654279",
"]  c #664379",
"[  c #6A417A",
"{  c #69447B",
"}  c #6A437D",
"|  c #6A447D",
" . c #6B467F",
".. c #6D447E",
"X. c #694979",
"o. c #6B4A7B",
"O. c #6C4B7C",
"+. c #704673",
"@. c #734674",
"#. c #784776",
"$. c #744976",
"%. c #744C7B",
"&. c #7C4C7B",
"*. c #695179",
"=. c #6C537B",
"-. c #6D537B",
";. c #6C547B",
":. c #74517F",
">. c #804D7C",
",. c #84517F",
"<. c #6C4580",
"1. c #6B4883",
"2. c #6E4984",
"3. c #6F4A86",
"4. c #704480",
"5. c #704783",
"6. c #714A85",
"7. c #704986",
"8. c #714A87",
"9. c #794E80",
"0. c #734B88",
"q. c #754C89",
"w. c #794B8B",
"e. c #735382",
"r. c #765180",
"t. c #735A82",
"y. c #7C5C85",
"u. c #77538A",
"i. c #775988",
"p. c #7D5C8B",
"a. c #7F6190",
"s. c #855282",
"d. c #8A5687",
"f. c #875A87",
"g. c #8D5588",
"h. c #8F598B",
"j. c #975D91",
"k. c #80628F",
"l. c #816191",
"z. c #866B99",
"x. c #A46398",
"c. c #AC669E",
/* pixels */
"X 1 S / 2 2 4 i 1 1 5 5 @ x f ! V V ^ k.q.d h a w a y y e e 5 e 4 > p 7 0 7 P 1 | | _ 9 1 : y Y i <.' <.4.0.x q.v 5.E . # 4 A e ",
"3 9 M 9 9 p : 1 # 1 - % 5 H i.t.;.p 5 i p { s 0.7.8 ' < 7.* 4 # > p K k W :.1 @ y O.R 9 2 - : 1 > h } ..x q.7.w.0.x - # 5 = 1   ",
"% : 1 1 : - 3 , 3 1 o 5 i f F ! ;.^ w V } 7.} 0.7 < 4 u s   1 # - u 0 j P i 1 3 i h f 7 - > : 2 < , , 7 q.<.y 0.s h # 9 # X 5   ",
"u 4 7 o p 6 5 1 2 3 5 1 i C D ^ ( D f s w s < y y 7 w : 7 . # X # 1 j y +.7 2 # 3 p X.f 7 4 % % 7 r q w a y < 7 s f ~ 3 o O 7.i ",
"y : 2 7 : 5 # 2 : 7 7 > 3 f i =.z.f w , w w < 7.% , y > : % 7 9 p y 7 3 2 2 1 + o 3 4 > q w y , s q O g , , 6 < 6 M 5 = o 1.[ 7 ",
"p - > 4 4 d 5 4 : i i 5 : 3 > 3 d g d q % u x & , - > : : ; - - y U y : # o o - o # 4 < u : : , n % O & 5.< y < : 3 1 - p f p f ",
"5 - 1 2 7 s C 1 4 p L y > # : > f : & q r d < # O : > - > 2 > u p 4 % # > 4 2 - # 1 @ 4 3.x 4 w % , @ ; y f < < # - i > E P ^ 5 ",
"7 - : 7 4 ' i 1 # %.f P 3 > - + % y % q h O : - < w > = < # 2 4 D i , + + - - # % 1 3 P f w h H a : % , y u : # 1 2 f > ..;./ 9 ",
"f > : s u x d : : P 9.f p e : - o - : , # < k > 7 > 7 - < 6 7 k W u % 4 4 : 6 X = 2 _ _ L &.%.5 1 5 3 o . & 1 3 2 3 O.' r.7 A p ",
"i 4 < v x h 7.< : : Q i u 4 7 > 8 p : > f 6 6 3 j 4 > 4 7 4 7 q.d , 4 > o : = > p 3 L &.j.h._ 2 2 G 1 Y * 1 5 2 i 3.v e.V 1 9 i ",
"i y s n u 7 3.: u k P e 4 k > # > 7 p 6 = > 8 6 2 6 < y , y f t & > > : 6 8 0 p o # 4 7 p h.1 : 1 1 U 1 o 2 2 M C 6.V A V 1 V i ",
"7 f w ; v f h y 4 4 p p j p j : > 4 6 2 < 6 8 k 4 4 > 4 u 7 u O - : + 8 7 - o : : o # 2 Z p # 5 # o o - M * 5 *.  o.f 5 2 : 1 u ",
"f ' 4 [ , ; q < y < f p Q j : > = > j j - > 7 8 < 7 8 6 o o = : # X > 6 6 8 p 6 - # o 6 e > : # 2 6 9 j o = M 5 $ ' } H 2 X 2 p ",
"5 d d 7 % : > , 3 > k Q 6 &.j > 7 7 - > > 6 7 < 4 3 + X X X o 6 # = 6 6 > = > = 3 # . . > i 3 > K o - > 6 o # 1 o 3 } L X X ` 7 ",
"4 f % y : , > < < 6 9 p = j = X : > p 6 : > + o - o + X X X = : = 6 < > = = - - > # : . > i y i 1 p U 8 > X # # o d 3.k % % 3.7 ",
", q r < y : ; ' 1 3 2 9 p > o > 7 > - : + > w > > . X X X X > X > > - = = - p 4 - 2 X X > y 4 1 7 #.9 - = X - - - 4 a ' y @ * , ",
"w q y n ; , h 4 1 : P _ # - 9 M - + ; y E %.f i < 4 < X X - o o > = + = 4 X.*.> = = = l 4 > y p 9 u 2 6 = 6 X o > # ..w w * $ w ",
"4 , y < u < 1 : - : 0 # # 1 2 : : = > 8 7 Z Z y ; 4 , + X > O 7 l : : 8 Z ! G i X X - X 7 > 2 : 5 p y : o X o - 2 M $ d 6.g % 5 ",
"< , 7 7 < - : + 2 8 P : % M # 6 - < p i V y Z p # < > + 2 # : 6 6 > s u.p 1 : - : X > 7 # 4 7 > > W 8 # p - # - 1 P 5 7.g 3 & < ",
"7 8 u ; 2 : # : 7 _ y X - - + : 6 E O.7 9 5 4 9 : - + : X @ 4 8 > y f 3 2 5 2 - > - : 7 - U 4 4 > > 7 O 1 o p # I f.e 5 H q.g 7 ",
"' ' 8 4 - : 1 4 y 5 : > + - + > 8 / p > 2 4 4 2 : # X 2 # 3 j 7 @ e 7 y < i : + > = 7 4 y 7 y 6 7 4 : O + k i - 1 # - p 3 i ~ | ",
"i 9 o - - 7 7 6 P V 3 - + + = > %.i 2 3 > - > : : + = : # 3 7 - X 4 s O.P y 3 > % + : + $.7 k 4 f > - X # 7 1 p V 1 h.V 1 # # e ",
"2 - o - - - 7 3 4 3 + + X : - 7 D D y > - > # + # . # 2 7 f 7 + o d n n < 7 : ; + X : k 2 k > E %.y p O 4 5 > 2 o 7 1 - % # % 3 ",
"5 5 - - # - 7 9 p k - X : + : > u :.< : < % : O + = - - 1 p + # # y s y , : , = . X O 4 3 7 6 W 3 P > 1 y 1 k 5 X 9 5 5 # % t t ",
"1 4 2 9 y V 9 2 > : X > X + : > { _ u y O % + O + + : > p + : . # y s w 4 < + + - X > 4 k p i p 0 > p p 3 1 Z # o - # + + + +   ",
"4 > : - % # 1 7 : = 4 = : # = > u y % % @ # + + ; # 7 7 p 7 - X 4 a w ; < + . . X X X X 1 y p f 4 2 o p o 7 4 # * # + 4 < u 4 4 ",
"u 4 :.y.3 7 3 + > - X X 1 X = ' [ q , , # # o - = X > 7 V # X o 4 y , < O . O X X > : + : i i 1 # 7 P u # # - # % = > < 7 7 7 7 ",
"4 5 V p k x < % X 2 2 = - 2 - y : % % % % : 4 - X : 7 e 2 o - o , : w O . . . - X X # 6 7 1 R C 9 = 0 2 X 2 # # 1 3 4 4 7 y y 7 ",
"9 9 y 5 s ' h f 4 # - X 5 o - y y , , q i 4 > 9 4 = - 7 3 = - = X < < : X o > = - 2 2 p : D V %.9 6 + O 2 X # * 1 5 9 6 7 6 M 5 ",
"2 1 i u ' e s x 3 : # 8 > X o = ; < e y : : y 5 : : y > 1 2 - o - + + o . - - X 9 : o - 9 e M $.2 X o = X # @ # 5 e 6 - 1 : 9 2 ",
"2 2 i x y w 0.x ' y + l o + X + > 4 > # 3 f y 8 p : o : : p 5 2 - @ o o X - o i 7 > p 7 7 i 7 : o o 5 - 7 X # 3 1 9 1 2 - : 2 5 ",
"5 5 f k w w ' y 7.f < U o - X - > : # f 4 < y p > X - o - 2 9 - - o 2 o - o 3 y : o X - y 9 4 + O - 3 o o # # 3 3 5 - 1 - - - 5 ",
"D y s v v < ..u x i 6 j p 7 o 2 : i i 4 : p > X o X : : 0 L L 9 2 - : - : o u 7 > X . # 4 H 8 X O : > . % 3 # 1 1 i 2 2 1 : w Z ",
"a < c < < s 4.< } 4 4 - P 9 # 5 e 4 4 4 < = X X o X o = 6 0 4 y 9 1 - 2 - @.4 % + - : e.e y : 7 p # % # G 3 # # C H 5 4 V i w u ",
"f < n a s w.y y < 7 5 2 W : o - 2 e 7 : = = X o = = o = - 1 : 9 1 - 1 3 u j : j 1 : 5 f [ f 7 > 2 5 y - e w O 1 C d 4 V } y , f ",
"' a v < s y 7 y < < o > L 2 2 3 4 3 : - = X = 7 6 > = 2 2 1 - - # 1 : 1 8 : T 7 - y 4 ' > 3 : + 7 ' 7 - e 1 + 3 e H i 7., q a ' ",
"E & , y - , y y y > X - 9 6 - : > 3 9 - 4 : 2 2 - : 2 2 > : 5 5 1 > - 6 ; 8 T - y V i 4 e | 7 : . Q 7 : # # + # 4 E w x q w a n ",
"g & y @ & y , 7 8 a = + : 2 o o : 3 1 7 2 2 2 o - 4 7 2 4 9 : 1 : : - 8 ; j > 6 p 7 4 <.a > : 6 k Q 4 3 + : # $ e d , 3.7.& & g ",
"g g , $ : , f 4 7.3 - + - 1 o o % % f Z y 2 - o = 3 > - y 2 4 i 1 - 6 P 6 8 6 6 y u f 5.a f + O 4 i &.4 O 1 O : : w e y q $ q g ",
"g w & ; % y 8 < ;.9 2 - 5 0 + X o > 6 9 6 2 2 2 4 6 6 : y X 1 - - 5 U - > > 9 4 < s n v < s + + : 3 %.> j y # # < y 3 h g q q g ",
"d w y % , 4 ..E 5 p : - 2 # X = = 9 f R 4 > 4 < : < < i h - - 9 # :.p - - p p 2 i } f y < > : 4 : p P 7 U 2 4 1 # % 1 3 d e q d ",
"u w y 3 > J 3 5 X 7 V 4 1 o 2 + : p u p.f < 4 : > > < < > : - 4 : T 8 - f =.V y ' s v f % % . : - k P p u k j o # @ % 5 d d h i ",
": 5 1 X o # 1 # + 4 +.p # o + + 1 f { %.u f < % , % : + 4 - p 9 2 5 - 5 ' y 4 u n n 7 $ O $ . 7 p p f 7 7 8 = = + # % 3 1 e 3 3 ",
"4 5 : + - 1 7 1 6 P &.- 1 1 7 - y ^ u E d n , @ O > : : y 4 L 9 - o - # f < i i k x < $ % . . - 4 3 y P k j 6 X + # - # 1 1 t.5 ",
"i i 5 1 1 1 o 1 j x.U 2 4 X w : X.' d v a w , ; & , % y > 6 6 - o # # o 7 3 Z E 7 < : # $ O % Q P _ L : 3 ; X + 1 # @ # # 5 1 1 ",
"# - 1 1 2 5 2 p >.>.T o # @ > 4 w w s h q w.$ % , < p > 6 - = - o - = 7 1 1 2 p ; < u <   . . k 3 _ g.Q > + o : i i 1 + # 1 1 ^ ",
"%.d p D E - 9 7 j @.u # # # % < : < f , & & s $ > > 5 - V 2 - 4 1 + - 2 2 9 L > + u + : > : : E D h U 4 : + 1 i 1 , 3 - o * 5   ",
"%.5 9 3 4 4 i U @.> l 6 7 # : > > w % % , , $ ; i U 7 1 : 7 6 ^ 2 - p Z V 2 : 1 l = = 6 : X . k f 4 > 1 - O 4 D % # o = o # 1   ",
"D 9 5 4 f < u # + ; j T 8 o 3 u > : 7 + % O % s 7 7 > > 2 + 9 2 o - : 5 1 V 8 j o = X - o X 5 f i # o 3 # @ F 1.O + # + + + y ' ",
"V 9 4 2 4 < > y o X = +.- j p L = X X = + - y v < j P 8 3 + 2 > + E Z > 4 y 7 u 8 o 2 - o 9 3 e y o X - + . f % % + o + X 4 i 7.",
"9 4 1 V k w < f 6 u @.6 j 2 2 U 6 6 o X X 6 @.j 4 &.#.@.- # > X u Z 9 4 y 4 < p - : > - V 4 M 5 - - 1 - X 2 + 1 4 % - X 9 i M f ",
"A 5 2 p u a y w y : j p 8 o U p 8 6 X X X j 9.l : j k > # o # ' Q L 2 - > y < s 2 - + 2 e 2 i - : # 1 o P k o o # 1 9 + 7 2 5 5 ",
"P 2 7 i v f < w f > - L 2 - = 2 j = o X X - V - + ; i # # 3 y 3 V S 7 : 7 7 % y f f e p 1 U 8 # 2 o - - d.9 # 1 2 1 2 4 4 1 1 5 ",
"L i a u s n q w E 7 : 2 : 2 L P < # 8 = X o o o : # M # 1 3 i y i.I 4 > #   - % 4 { X.3 4 V o ,.U 6 j 2 $.6 o 2 - S 3 y i 5 - i ",
"` f p s < h 0.e ` d 5 5 1 S X.p 6 + $.U X o o 1 1 # 5 - 5 . C 5 f o.p # O   X - f E D i - o s.,.T +.6 8 9 - 5 1 1 G O f Z 5 4 Q ",
"] ..& % [ f < a i w 1 2 1 y P p 8 o @.c.j o - 1 X + o # 1 3 E ' y k u O O : % = x ] E o o 6 T - j j 4 4 9 2 2 1 9 Y o f d p P 7.",
"| , $ 7.w : 3 7 w O 9 i X y 9 > o o 7 T L 8 o 1 8 7 7 # # O * . f { E 4 O f ` j [ w.o o - p U 0 2 2 9 1 9 5 0 7 4 5 5 i _ R y h ",
"f q 3 7.$ % 4 % # # / 2 2 X - # = - - U L - - 1 5 4 k j 0 1 i M 1 G * 1 3 *.5 4 5 - - 3 > j p 9 L L y 5 M 9 - 2 y.6 - R 1.r d ' ",
"n h $ % O : 1 2 + s 9 > 2 = = = 2 M 1 i 9 5 - - 7 f L $.U L 2 : e # # 5 ^ 9 : 2 - 2 5 = > o o - = i i 2 3 Y 1 U V 2 1 - e d d 7.",
"r % + O % % - 2 + > o @.0 o - = 1 o # 7 6 1 2 5 9 V p U W 5 9 2 * # 1 M M X - # # 2 - i 9 5 p 2 3 f ` d D - # / 5 - o 1 : E d 7.",
"7 % : X o X - o 7 : j $.- 1 - - 1 5 7 2 : 3 % 7 L p P k 4 U : 4 5 3 9 L > - - - o # M i p y Y / D ^ 5.| ' w f P Y 5 # # 3 5 ' ' ",
"X.> X X o - - > 2 # 6 9 : ;.4 5 V p S f 9...d d i i p U j 3 4 3 4 U U 0 j 0 j 0 Z ;.a.^ i y 4 5 I e.u.y r d d , 2 1 1 # 5 i 5 @ ",
"e 3 X X o > 8 p 8 > p p i f 9 9 9 i V d f a a w q i 9 i V p : 1 i L P 6 2 > 6 A C l.t.! 4 9 i S F f e d g & d q.5 : # - M Z X   ",
"1 # + # X # - 2 > > # m M D V Y V V _ l.0.g g a w y y y i 9 3 5 7 < 0 8 8 4 o M 3 f O.r.! S ( ~ O.| w d q.q d q.q.f . o 3 5 .   "
};
