/* XPM */
static char *ff5a795548e54815c844f67083ee3112PawVK78Bgqs6WBWj[] = {
/* columns rows colors chars-per-pixel */
"64 64 8 1 ",
"  c None",
". c black",
"X c #100E10",
"o c #211D21",
"O c #7A2121",
"+ c #AF3333",
"@ c #8ACA37",
"# c #D6EDBB",
/* pixels */
"                                                                ",
"                                                                ",
"                                                                ",
"                                                                ",
"                                                                ",
"                                                                ",
"                                                                ",
"                                                                ",
"                                                                ",
"                                                                ",
"                                                                ",
"                                                                ",
"                                                                ",
"                                                                ",
"                                                                ",
"                                                                ",
"                                                                ",
"                                                                ",
"                                                                ",
"                                                                ",
"                                                                ",
"                                                                ",
"                                                                ",
"                                                                ",
"                                                                ",
"                                                                ",
"                                                                ",
"                                                                ",
"                                                                ",
"                                                                ",
"                                                                ",
"                                                                ",
"                                              XXXXXXXXX         ",
"                                     XXXXXXXXXXXXooooooo        ",
"                                XXXXXXooooooooooooXXXX          ",
"                              XXXXooooXXXXXXXXXXXXXX            ",
"                            XXXXoooXXXXXXXXXXXXXXXXX            ",
"                          XXXXoooXXXXXXXXXXXXXXXXXX             ",
"                        XXXXoooXXXXXXXXXXXXXXXXXXX              ",
"                      XXXXoooXXXXXXXXXXXXXXXXXX                 ",
"                    XXXXoooXXXXXXXXXXXXXXXXXXX                  ",
"                    XXoooXXXXXXXXXXXXXXXXXXXoX                  ",
"                    XooXXXXXXXXXXXXXXXXXXXX                     ",
"           ooo      XoXXXXXXXXXXXXXXXXXXXX                      ",
"       ooooooo      XoXXXXXXXXXXXXXXXXXXXX                      ",
"     oooooooo       XoXXXXXXXXXXXXXXXXX                         ",
"   ooooooXXX       XXoXXXXXXXXXXXXXXXX                          ",
" oooooooooXoo    XXXooXXXXXXXXXXXXXXXX                 ++       ",
" o.@@ooooXXXooo  XoooXXXXXXXXXXXXX                    +++  ooo  ",
"oo.#oooooXXooooooooXXXXXoooooXXXX                    O++   ooo  ",
"ooooooooXXXoooooooXXXXXooooooooXX                   +OO+OXoooo  ",
"oooooooXXXooooooooooooooooooooooooo                 ++++oXoXXo  ",
"        XXoooooooooooooooooooooooooo                O++OoXXXo   ",
"          oooooooooooXooooXXXoooooooo              +O+OoXooo    ",
"           ooooooooooXooooXXXXoooooooo             +++OoXXoo    ",
"           ooooXXooooXoooooXooXXooooooo             OoooXXXX    ",
"            oooXXXooX oooooXooooXoooooooo          ooooXXX      ",
"            oooXXX    oooooXXooooXooooooooo     oooooo          ",
"            oooo      ooooXXXooXooXXoooooooooooooooooo          ",
"            oooo      ooooooXooXooooXXoooooooooooo              ",
"            oooo       oooooXoooXooXooooooooooo                 ",
"           oooo         ooooXooo                                ",
"          ooooo          oooXX                                  ",
"        XXoooo          XXoXoo                                  "
};
