/* XPM */
static char *eee2dc3377134e92c8698b5129174d7aGCznoYHqkxI5PmQK[] = {
/* columns rows colors chars-per-pixel */
"64 64 8 1 ",
"  c None",
". c black",
"X c #100E10",
"o c #211D21",
"O c #7A2121",
"+ c #AF3333",
"@ c #8ACA37",
"# c #D6EDBB",
/* pixels */
"                                                                ",
"                                                                ",
"                                                                ",
"                                                                ",
"                                                                ",
"                                                                ",
"                                                                ",
"                                                                ",
"                                                                ",
"                                                                ",
"                                                                ",
"                                                                ",
"                                                                ",
"                                                                ",
"                                                                ",
"                                                                ",
"                                                                ",
"                                                                ",
"                                                                ",
"                                                                ",
"                                                                ",
"                                                                ",
"                                                                ",
"                                                                ",
"                                                                ",
"                                                                ",
"                                                                ",
"                                                                ",
"                                                                ",
"                                                                ",
"                                                                ",
"                                                                ",
"         XXXXXXXXX                                              ",
"        oooooooXXXXXXXXXXXX                                     ",
"          XXXXooooooooooooXXXXXX                                ",
"            XXXXXXXXXXXXXXooooXXXX                              ",
"            XXXXXXXXXXXXXXXXXoooXXXX                            ",
"             XXXXXXXXXXXXXXXXXXoooXXXX                          ",
"              XXXXXXXXXXXXXXXXXXXoooXXXX                        ",
"                 XXXXXXXXXXXXXXXXXXoooXXXX                      ",
"                  XXXXXXXXXXXXXXXXXXXoooXXXX                    ",
"                  XoXXXXXXXXXXXXXXXXXXXoooXX                    ",
"                     XXXXXXXXXXXXXXXXXXXXooX                    ",
"                      XXXXXXXXXXXXXXXXXXXXoX      ooo           ",
"                      XXXXXXXXXXXXXXXXXXXXoX      ooooooo       ",
"                         XXXXXXXXXXXXXXXXXoX       oooooooo     ",
"                          XXXXXXXXXXXXXXXXoXX       XXXoooooo   ",
"       ++                 XXXXXXXXXXXXXXXXooXXX    ooXooooooooo ",
"  ooo  +++                    XXXXXXXXXXXXXoooX  oooXXXoooo@@.o ",
"  ooo   ++O                    XXXXoooooXXXXXooooooooXXooooo#.oo",
"  ooooXO+OO+                   XXooooooooXXXXXoooooooXXXoooooooo",
"  oXXoXo++++                 oooooooooooooooooooooooooXXXooooooo",
"   oXXXoO++O                ooooooooooooooooooooooooooXX        ",
"    oooXoO+O+              ooooooooXXXooooXooooooooooo          ",
"    ooXXoO+++             ooooooooXXXXooooXoooooooooo           ",
"    XXXXoooO             oooooooXXooXoooooXooooXXoooo           ",
"      XXXoooo          ooooooooXooooXooooo XooXXXooo            ",
"          oooooo     oooooooooXooooXXooooo    XXXooo            ",
"          ooooooooooooooooooXXooXooXXXoooo      oooo            ",
"              ooooooooooooXXooooXooXoooooo      oooo            ",
"                 oooooooooooXooXoooXooooo       oooo            ",
"                                oooXoooo         oooo           ",
"                                  XXooo          ooooo          ",
"                                  ooXoXX          ooooXX        "
};
