/* XPM */
static char *b85ca00bda59443efa0bc7b4e4b00b87ptMyHjTTPLtOdGS3[] = {
/* columns rows colors chars-per-pixel */
"64 64 9 1 ",
"  c None",
". c black",
"X c #100E10",
"o c #0D0134",
"O c #211D21",
"+ c #792626",
"@ c #AD3636",
"# c #89C93A",
"$ c #D6EDBB",
/* pixels */
"                                                                ",
"                                                                ",
"                                                                ",
"                                                                ",
"                                                                ",
"                                                                ",
"                                                                ",
"                                                                ",
"                                                                ",
"                                                                ",
"                                                                ",
"                                                                ",
"                                                                ",
"                                                                ",
"                                                                ",
"                                                                ",
"                                                                ",
"                                                                ",
"                                                                ",
"                                                                ",
"                                                                ",
"                                                                ",
"                                                                ",
"                                                                ",
"                                                                ",
"                                                                ",
"                                                                ",
"                                                                ",
"                                                                ",
"                                                                ",
"                                                                ",
"                                                                ",
"                                                                ",
"                                                                ",
"                                                                ",
"                                                                ",
"                                                                ",
"                                                                ",
"                                                                ",
"                                                                ",
"                                                                ",
"                            OOOOOOOOOOOO                        ",
"                        OOOOOOOOOOOOOOOOOOOO    OOOOOOOO        ",
"                       OOOOOOOOOOOOOOOOOOOOOOOO OOOOOOOOOOOO    ",
"                   OOOOOOOOOOOOOOOOOOOOOOOOOOOO  OOOOOOOOOOOOO  ",
"                OOOOOOOOOOOOOOOOOOOOOOOOOXX        XXXOOOO##.OO ",
"              OOOOOOOOOO       OOOOOOXXXXXXO      OOXOOOOOO$.OOO",
"                               XXXXXXXXXXXXOO     OOXXXXOOOOOOOO",
"                                XXXXXXXXXXXXOOOO OOOOXXOOOOOOOOO",
"                                 XXXXOOOOXXXXOOOXOOOOOXXXX      ",
"                                OOOOOOOOOOXXXOOOXOOOOOXXX       ",
"                              OOOOOOOOOOOOOOXXXXOOOOOOOX        ",
"      @                      OOOOOOOOOOOOOOOOOOOOOOOOOOX        ",
"      @@@                   OOOOOOOOXXXOOOOXOOOOOOOOOOO         ",
"      @@@+                 OOOOOOOOXXXXOOOOXOOOOOOOOOO          ",
" OOO   @@+@               OOOOOOOXXOOXOOOOOXOOOOXXOOOO          ",
" OOOOOX+@@@@             OOOOOOOXOOOOXOOOOO XOOXXXOOO           ",
"  OOOOXO+@@+@           OOOOOOOXOOOOXXOOOOO    XXXOOO           ",
"  OXXXXOO+@+@         OOOOOOOXXOOXOOXXXOOOO      OOOO           ",
"   OOOOXOO+@@      OOOOOOOOXXOOOOXOOXOOOOOO      OOOO           ",
"    OOOXXOOO+   OOOOOOOOOOOOOXOOXOOOXOOOOO       OOOO           ",
"     XXXXXOOOOOOOOOOOOOOOOOO     OOOXOOOO         OOOO          ",
"      XXXXXOOOOOOOOOOOOOO          XXOOO          OOOOO         ",
"                                   OOXOXX          OOOOoo       "
};
