/* XPM */
static char *_2c0f15b13b34788b296d8cfa18b73c4lSC9DZMs6kVSBX6l[] = {
/* columns rows colors chars-per-pixel */
"64 64 8 1 ",
"  c None",
". c black",
"X c #100E10",
"o c #211D21",
"O c #792626",
"+ c #AD3636",
"@ c #89C93A",
"# c #D6EDBB",
/* pixels */
"                                                                ",
"                                                                ",
"                                                                ",
"                                                                ",
"                                                                ",
"                                                                ",
"                                                                ",
"                                                                ",
"                                                                ",
"                                                                ",
"                                                                ",
"                                                                ",
"                                                                ",
"                                                                ",
"                                                                ",
"                                                                ",
"                                                                ",
"                                                                ",
"                                                                ",
"                                                                ",
"                                                                ",
"                                                                ",
"                                                                ",
"                                                                ",
"                                                                ",
"                                                                ",
"                                                                ",
"                                                                ",
"                                                                ",
"                                                                ",
"                                                                ",
"                                                                ",
"                                                                ",
"                                                                ",
"                                                                ",
"                                                                ",
"                                                                ",
"                                                                ",
"                                                                ",
"                                                                ",
"                                                                ",
"                        oooooooooooo                            ",
"        oooooooo    oooooooooooooooooooo                        ",
"    oooooooooooo oooooooooooooooooooooooo                       ",
"  ooooooooooooo  oooooooooooooooooooooooooooo                   ",
" oo.@@ooooXXX        XXooooooooooooooooooooooooo                ",
"ooo.#ooooooXoo      oXXXXXXoooooo       oooooooooo              ",
"ooooooooXXXXoo     ooXXXXXXXXXXXX                               ",
"oooooooooXXoooo ooooXXXXXXXXXXXX                                ",
"      XXXXoooooXoooXXXXooooXXXX                                 ",
"       XXXoooooXoooXXXoooooooooo                                ",
"        XoooooooXXXXoooooooooooooo                              ",
"        Xoooooooooooooooooooooooooo                      +      ",
"         oooooooooooXooooXXXoooooooo                   +++      ",
"          ooooooooooXooooXXXXoooooooo                 O+++      ",
"          ooooXXooooXoooooXooXXooooooo               +O++   ooo ",
"           oooXXXooX oooooXooooXooooooo             ++++OXooooo ",
"           oooXXX    oooooXXooooXooooooo           +O++OoXoooo  ",
"           oooo      ooooXXXooXooXXooooooo         +O+OooXXXXo  ",
"           oooo      ooooooXooXooooXXoooooooo      ++OooXoooo   ",
"           oooo       oooooXoooXooXooooooooooooo   OoooXXooo    ",
"          oooo         ooooXooo     ooooooooooooooooooXXXXX     ",
"         ooooo          oooXX          ooooooooooooooXXXXX      ",
"       XXoooo          XXoXoo                                   "
};
