/* XPM */
static char *cff0a4cffd784e05bf83c345b824d1fcjNFTzmcCyaavOEau[] = {
/* columns rows colors chars-per-pixel */
"64 64 4 1 ",
"  c None",
". c #5487FF",
"X c #4DBEEF",
"o c #B7E4F0",
/* pixels */
"                                                                ",
"                                                                ",
"                                                                ",
"                                                                ",
"                                                                ",
"                                                                ",
"                                                                ",
"                                                                ",
"                                                                ",
"                                                                ",
"                                                                ",
"                                                                ",
"                                                                ",
"                                                                ",
"                                                                ",
"                                                                ",
"                                                                ",
"                                                                ",
"                                                                ",
"                                                                ",
"                                                                ",
"                                                                ",
"                                                                ",
"                                                                ",
"                                                                ",
"                                                                ",
"                                                                ",
"                                                                ",
"                                                                ",
"                                                                ",
"                                                                ",
"                                                                ",
"                                                                ",
"                                                                ",
"                                                                ",
"                                                                ",
"                                                                ",
"                      .                                         ",
"                   .....                                        ",
"                  ....... ..                                    ",
"                 ..X..X......                                   ",
"                ..XXXXXX.. ..                                   ",
"               ..XXXXXX..                    ..                 ",
"               ..XXoXX..   .. ..            ...                 ",
"               ...ooo...   .. ..            ..                  ",
"              ...XXoXX...         .. ..                         ",
"               ...XoXXX...         . .              ..          ",
"               ...XoXXX...           .  .          ...          ",
"               ..XXXXX...            .....         ..   ..      ",
"                ..XXXXX...    ..        .                       ",
"                 ..X..X...    ..                                ",
"                  .......                                       ",
"                   .....                                        ",
"                      .                                         ",
"                                                                ",
"                                                                ",
"                                                                ",
"                                                                ",
"                                                                ",
"                                                                ",
"                                                                ",
"                                                                ",
"                                                                ",
"                                                                "
};
