/* XPM */
static char *a127e900bfac4ab8f96508fd7dc37f6d46nwt5D1eAOr3WnO[] = {
/* columns rows colors chars-per-pixel */
"64 64 6 1 ",
"  c None",
". c black",
"X c #9B9B9B",
"o c #99D9EA",
"O c #CDECF5",
"+ c #E6E6E6",
/* pixels */
"                                                                ",
"                                                                ",
"                                                                ",
"                                                                ",
"                                                                ",
"                                                                ",
"                                                                ",
"                                                                ",
"                                                                ",
"                                                                ",
"                                                                ",
"                                                                ",
"                                                                ",
"                                                                ",
"                                                                ",
"                                                                ",
"                                                                ",
"                                                                ",
"                                                                ",
"                                                                ",
"                                                                ",
"                                                                ",
"                                                                ",
"                                                                ",
"                                                                ",
"                                                                ",
"                                                                ",
"                                                                ",
"                                                                ",
"                                                                ",
"                                                                ",
"                                                                ",
"                                                                ",
"                                                                ",
"                                                                ",
"                                                                ",
"                                                                ",
"                                                                ",
"                                                                ",
"     ++                                                         ",
" +++++++++++                                                    ",
" ++.oo++++++++++                                                ",
"+++.O+++++++++++                                                ",
"++++++++++XXX++                                                 ",
"  ++++++XXXX++                                                  ",
"     X+++XX+++                                                  ",
"      XXXX+++++  XXXXXXXXXXXXXXXXXX                             ",
"       XXX+++++ +++++++++++++++++XXX                            ",
"       XXX+++++X++++++++++++++++++XXXX                          ",
"       XXX+++++X++++++++++++++++++++++XXXXXX                    ",
"        X+++++++X++++++++++++++++++++++++++++X                  ",
"        X++++++++XXX+++++++++++++++++++++++++++XX               ",
"         ++++++++++XXXXXX++++++++++++++++++++++++XXX            ",
"          ++++++++++X+++XXXXXXX++++++++++++++++++++X            ",
"          ++++XX++++X+++++X++XXXXXXXXXXXXXXXXXXXXXX     +       ",
"           +++XXX++X +++++X++++X++++++++             X+++       ",
"           +++XXX    +++++XX++++X+++++++++          +X+++       ",
"           ++++      ++++XXX++X++XX+++++++        +++++         ",
"           ++++      ++++++X++X++++XX+++++++     +X+++XX+ +++   ",
"           ++++       +++++X+++X++X+++++++++++   +X+XX+X++++    ",
"          ++++         ++++X+++     +++++++++++ X+X++++XX+++    ",
"         +++++          +++XX            +++++++++++XX+++X++    ",
"       XX++++          XX+X++                ++++++XXX++++      ",
"      +++++           ++++++                       XXXXX+       "
};
